<svg width="343" height="445" viewBox="0 0 343 445" fill="none" xmlns="http://www.w3.org/2000/svg">
<path d="M220.151 107.414C223.426 108.661 226.771 109.719 230.168 110.581C234.655 111.674 237.188 112.181 241.519 110.5C241.671 110.441 241.816 110.383 241.953 110.326C250.162 106.836 257.179 101.035 262.151 93.63C267.122 86.2247 269.833 77.534 269.954 68.616C269.975 68.3101 269.975 67.9884 269.975 67.6746C269.98 66.1632 269.907 64.6525 269.759 63.1483C269.569 61.0994 269.241 59.0657 268.778 57.0609L268.821 57.0531C272.327 53.4681 273.677 48.5574 273.229 43.6231C272.923 40.2779 271.861 37.0459 270.124 34.1706C268.387 31.2953 266.02 28.8517 263.201 27.024C258.783 24.2469 253.802 22.4889 248.62 21.8779C247.228 21.7175 245.829 21.6363 244.428 21.6348H231.268C228.55 20.9985 225.789 20.5633 223.007 20.3325H222.986C196.5 18.1361 175.613 35.6922 177.561 57.053C177.576 57.0766 177.597 57.1001 177.612 57.1237C178.175 58.0415 178.672 58.9122 179.112 59.7437C179.538 60.5203 179.899 61.2656 180.209 61.9716C182.626 67.4315 171.14 152.141 175.26 153.427C177.605 154.157 187.056 91.1222 185.36 103.109C183.225 118.147 207.95 102.904 220.151 107.414Z" fill="#2F2E41"/>
<path d="M180.252 260.543L143.538 338.749L284.769 324.447L255.288 249.371L180.252 260.543Z" fill="#FFB6B6"/>
<path d="M106.552 417.341C131.111 425.515 156.992 428.981 182.837 427.558L194.076 409.334C194.076 409.334 194.546 416.121 195.248 426.497C207.551 425.071 219.693 422.497 231.516 418.809C253.938 411.799 274.955 400.936 296.26 390.92C300.575 365.199 302.194 325.539 278.337 302.45L149.927 325.977C149.927 325.977 129.324 341.385 134.836 346.904C140.347 352.415 141.201 351.562 137.58 355.182C133.958 358.803 126.134 363.644 126.054 366.81C126.022 368.046 117.24 390.465 106.552 417.341Z" fill="#2F2E41"/>
<path d="M202.676 109.423L233.699 111.587L253.751 130.96L260.774 132.214C267.086 133.339 272.766 136.741 276.736 141.775C280.707 146.81 282.692 153.125 282.315 159.525C280.87 183.995 277.636 220.558 270.876 232.42C260.394 250.814 251.736 245.043 260.394 250.814C269.052 256.585 274.865 252.05 270.876 261.171C266.888 270.291 276.267 281.99 276.267 281.99L280 285.723L276.04 287.346L149.858 303.762C149.858 303.762 160.769 254.713 153.945 242.664C147.122 230.615 130.578 194.193 145.343 179.942L159.78 129.144L184.614 121.821L202.676 109.423Z" fill="#00AFF0"/>
<path d="M14.8759 310.735C16.952 310.67 18.9892 310.154 20.8463 309.223C22.7034 308.293 24.3362 306.97 25.6318 305.347C26.9274 303.723 27.8549 301.838 28.35 299.821C28.8452 297.803 28.8962 295.703 28.4995 293.664L87.6888 253.584L80.6265 234.489L10.6745 282.606C7.29201 283.529 4.36556 285.661 2.4497 288.597C0.533843 291.533 -0.238279 295.07 0.279588 298.537C0.797456 302.004 2.56938 305.161 5.25956 307.409C7.94975 309.657 11.3713 310.841 14.8759 310.735V310.735Z" fill="#FFB6B6"/>
<path d="M182.056 126.745L190.657 130.15L144.776 219.747L49.7953 284.481L36.1041 261.344L108.405 198.902L137.35 143.396C141.424 135.584 148.248 129.559 156.505 126.484C164.761 123.409 173.865 123.502 182.056 126.745Z" fill="#00AFF0"/>
<path d="M219.802 101.543C202.597 101.543 188.65 87.5976 188.65 70.3951C188.65 53.1926 202.597 39.2472 219.802 39.2472C237.007 39.2472 250.954 53.1926 250.954 70.3951C250.954 87.5976 237.007 101.543 219.802 101.543Z" fill="#FFB6B6"/>
<path d="M192.712 57.2235C193.232 57.4976 193.744 57.7501 194.264 58.0026C194.805 58.2622 195.346 58.522 195.894 58.7672C206.319 63.4923 214.811 64.0189 219.963 57.2235C220.103 53.6484 220.908 50.1307 222.336 46.85C222.084 50.5163 223.05 54.1631 225.085 57.2235H235.46C246.145 64.3147 251.628 70.8288 244.211 94.1078C243.728 95.6371 240.416 149.972 239.471 154.148C255.647 147.945 269.6 82.0751 269.954 64.7186C269.975 64.4373 269.975 64.1415 269.975 63.853C269.98 62.4626 269.907 61.073 269.759 59.6906C269.569 57.8032 269.241 55.9323 268.778 54.0927L268.821 54.0855C270.467 52.5122 271.722 50.5765 272.488 48.4323C273.253 46.2882 273.507 43.995 273.229 41.7354C270.516 38.1829 267.158 35.1728 263.331 32.8624C259.851 31.1774 256.223 29.8155 252.494 28.7938C252.4 28.7722 252.321 28.7505 252.227 28.7289C251.087 28.4187 249.918 28.1373 248.75 27.8921C246.341 27.387 243.906 27.0185 241.455 26.7884C241.275 26.7811 241.102 26.7667 240.943 26.7667C239.963 26.7673 239.001 27.0314 238.158 27.5314C238.151 27.5314 238.151 27.5386 238.137 27.5386C237.327 28.0225 236.655 28.7067 236.186 29.5254C235.717 30.3442 235.467 31.2697 235.46 32.2131H223.902C223.476 32.2131 223.05 32.2276 222.625 32.2492C206.529 32.8912 193.592 39.7732 192.763 55.5932C192.727 56.1414 192.712 56.6753 192.712 57.2235Z" fill="#2F2E41"/>
<path d="M261.046 58.4757C249.711 58.4757 240.523 49.2884 240.523 37.9553C240.523 26.6221 249.711 17.4348 261.046 17.4348C272.38 17.4348 281.569 26.6221 281.569 37.9553C281.569 49.2884 272.38 58.4757 261.046 58.4757Z" fill="#2F2E41"/>
<path d="M232.87 28.4639C235.201 39.5547 246.705 46.1879 257.71 43.4745C262.994 42.1715 267.545 38.8228 270.36 34.165C273.176 29.5072 274.025 23.9219 272.722 18.6379C270.008 7.63436 256.653 10.8066 247.882 3.62729C235.476 -6.52883 229.725 13.5072 232.87 28.4639Z" fill="#2F2E41"/>
<path d="M278.469 337.187C260.978 265.867 226.32 204.566 168.922 156.537C166.701 152.883 163.12 150.259 158.967 149.242C154.813 148.224 150.425 148.895 146.766 151.108L10.3168 233.829C6.66253 236.05 4.0386 239.63 3.02066 243.783C2.00272 247.936 2.67393 252.323 4.88704 255.982C26.7951 329.165 59.6081 392.668 114.434 436.632C116.655 440.286 120.235 442.91 124.389 443.928C128.543 444.946 132.93 444.275 136.59 442.062L273.039 359.34C276.693 357.119 279.317 353.54 280.335 349.387C281.353 345.233 280.682 340.846 278.469 337.187V337.187Z" fill="#F2F2F2"/>
<path opacity="0.2" d="M254.217 361.223C257.871 359.002 260.495 355.423 261.513 351.269C262.531 347.116 261.86 342.729 259.647 339.07C242.155 267.75 207.497 206.449 150.1 158.42C148.629 156.028 146.553 154.067 144.081 152.735L146.766 151.107C150.425 148.895 154.813 148.224 158.967 149.241C163.12 150.259 166.701 152.883 168.922 156.536C226.32 204.565 260.978 265.866 278.469 337.187C280.682 340.846 281.353 345.233 280.335 349.386C279.317 353.539 276.693 357.119 273.039 359.34L136.59 442.061C134.161 443.523 131.39 444.316 128.556 444.361C125.722 444.405 122.926 443.7 120.453 442.317L254.217 361.223Z" fill="black"/>
<path d="M94.1966 321.376L185.788 266.197C187.243 265.318 188.289 263.897 188.698 262.247C189.106 260.596 188.842 258.852 187.965 257.396C187.087 255.939 185.668 254.891 184.018 254.481C182.368 254.071 180.623 254.332 179.165 255.207L87.5742 310.387C86.1226 311.268 85.0795 312.688 84.6734 314.337C84.2672 315.985 84.5313 317.728 85.4077 319.182C86.284 320.636 87.7012 321.684 89.3486 322.095C90.9961 322.506 92.7394 322.248 94.1967 321.376L94.1966 321.376Z" fill="white"/>
<path d="M147.478 248.203L167.628 236.063C169.089 235.19 170.142 233.772 170.557 232.122C170.972 230.472 170.714 228.725 169.84 227.265C168.967 225.805 167.549 224.751 165.899 224.336C164.248 223.922 162.501 224.179 161.041 225.053L161.006 225.074L140.856 237.213C139.404 238.094 138.36 239.514 137.954 241.163C137.548 242.812 137.812 244.555 138.688 246.009C139.565 247.463 140.982 248.511 142.63 248.922C144.278 249.334 146.021 249.075 147.478 248.203V248.203Z" fill="white"/>
<path d="M108.754 345.533L200.345 290.353C201.801 289.476 202.85 288.056 203.261 286.406C203.671 284.756 203.41 283.011 202.534 281.553C201.658 280.096 200.239 279.046 198.59 278.634C196.94 278.222 195.194 278.481 193.735 279.356L193.722 279.364L102.131 334.543C100.68 335.424 99.6365 336.844 99.2304 338.493C98.8243 340.142 99.0883 341.884 99.9647 343.338C100.841 344.792 102.258 345.84 103.906 346.251C105.553 346.663 107.296 346.404 108.754 345.533L108.754 345.533Z" fill="white"/>
<path d="M82.5651 217.334C67.7905 217.334 55.8133 205.358 55.8133 190.585C55.8133 175.813 67.7905 163.837 82.5651 163.837C97.3398 163.837 109.317 175.813 109.317 190.585C109.317 205.358 97.3398 217.334 82.5651 217.334Z" fill="#3F3D56"/>
<path d="M269.961 337.943C272 337.108 273.833 335.839 275.333 334.226C276.834 332.613 277.966 330.693 278.651 328.599C279.336 326.506 279.559 324.288 279.303 322.1C279.047 319.912 278.318 317.805 277.168 315.927L321.122 254.15L307.021 237.793L255.353 311.548C252.334 313.719 250.216 316.922 249.401 320.55C248.586 324.178 249.131 327.979 250.932 331.233C252.732 334.486 255.664 336.966 259.171 338.203C262.678 339.44 266.518 339.347 269.961 337.943H269.961Z" fill="#FFB6B6"/>
<path d="M268.951 142.173C271.175 140.865 273.792 140.392 276.333 140.84C278.874 141.287 281.172 142.625 282.815 144.614L342.202 227.659L287.166 305.816L265.63 282.688L299.13 230.052L254.608 187.667C250.949 179.653 250.391 170.567 253.04 162.165C255.689 153.763 261.357 146.641 268.951 142.173V142.173Z" fill="#00AFF0"/>
</svg>
