<svg width="154" height="48" fill="none" xmlns="http://www.w3.org/2000/svg"><g clip-path="url(#clip0_10420_41517)" fill-rule="evenodd" clip-rule="evenodd"><path d="M37.19 23.102C39.032 13.976 35.189.081 26.435.081c-6.454 0-14.32 9.87-11.349 23.078C5.49 26.664-2.897 35.16.96 42.627c2.868 5.553 15.735 6.349 25.552-1.42 6.218 5.576 20.972 8.793 25.41 1.146 3.69-6.357-3.83-15.367-14.732-19.25zm8.33 14.042c-.323 1.74-1.494 3.373-3.481 4.064-3.478 1.209-9.071.411-13.77-1.52 4.216-3.962 6.93-9.563 7.729-12.157C25.186 43.903 11.326 43.742 8.424 38.74c-2.349-4.047.507-10.57 7.074-13.97 1.088 3.79 3.07 7.823 6.225 11.955C11.4 18.83 20.628 7.905 26.435 7.905c6.037 0 9.478 7.768 9.115 14.661-4.865-1.456-10.293-1.877-15.649-.626 21.293-.566 26.69 9.439 25.62 15.204zM66.813 4.017l-.064 1.372a7.71 7.71 0 00-1.29-.407 6.11 6.11 0 00-1.285-.135c-1.374 0-2.465.398-3.271 1.193-.808.795-1.212 1.868-1.212 3.219 0 1.367.402 2.441 1.207 3.223s1.902 1.173 3.292 1.173c.44 0 .869-.04 1.288-.122.418-.08.83-.2 1.239-.357l.049 1.437a8.06 8.06 0 01-1.27.285c-.45.065-.927.098-1.43.098-1.87 0-3.344-.505-4.423-1.515-1.08-1.011-1.62-2.387-1.62-4.13 0-1.765.55-3.17 1.651-4.214 1.102-1.044 2.581-1.567 4.44-1.567.498 0 .973.037 1.426.11a6.37 6.37 0 011.273.337zM74.83 9.97v4.993h-1.422v-1.35c-.319.498-.71.868-1.177 1.113-.468.242-1.008.365-1.624.365-.78 0-1.41-.225-1.89-.673-.48-.45-.72-1.034-.72-1.755 0-.898.364-1.585 1.091-2.06.727-.476 1.776-.714 3.146-.714h1.057v-.16c0-.644-.18-1.144-.537-1.503-.357-.36-.851-.54-1.482-.54-.355 0-.723.06-1.105.174a5.662 5.662 0 00-1.175.518l-.016-1.25a5.992 5.992 0 011.304-.443 6.965 6.965 0 011.466-.147c1.025 0 1.796.286 2.312.858.514.572.773 1.43.773 2.573zm-2.493.94c-.905 0-1.598.146-2.078.434-.482.29-.722.705-.722 1.247 0 .413.137.752.41 1.017.273.265.628.398 1.065.398.688 0 1.24-.225 1.656-.675.415-.45.623-1.054.623-1.81v-.61h-.954zm11.915-.918v4.971h-1.54v-4.627c0-.843-.15-1.47-.45-1.877-.3-.408-.762-.612-1.387-.612-.685 0-1.223.258-1.616.772-.394.515-.59 1.232-.59 2.15v4.194h-1.54V6.73h1.41v1.526c.305-.57.699-.998 1.181-1.286.482-.287 1.047-.431 1.696-.431.93 0 1.637.293 2.116.88.48.586.72 1.444.72 2.574zm4.414-5.784V6.73h1.989v1.15h-1.989v4.285c0 .644.096 1.101.284 1.372.188.27.498.406.93.406.107 0 .231-.014.37-.044a3.37 3.37 0 00.47-.14l.016 1.204a5.012 5.012 0 01-1.255.16c-.842.001-1.444-.214-1.808-.646-.364-.431-.547-1.153-.547-2.167V7.88h-1.668V6.73h1.717V4.715l1.492-.507zm10.253 6.362v.627h-5.88c.06.878.343 1.56.85 2.047.507.487 1.193.73 2.06.73.38 0 .758-.049 1.135-.148a5.567 5.567 0 001.16-.458v1.318a5.522 5.522 0 01-1.194.352 8.084 8.084 0 01-1.427.117c-1.254 0-2.243-.393-2.966-1.179-.724-.786-1.086-1.856-1.086-3.21 0-1.267.356-2.29 1.068-3.064.71-.776 1.642-1.164 2.792-1.164 1.084 0 1.936.359 2.557 1.076.62.717.93 1.703.93 2.956zm-1.445-.394c-.053-.811-.266-1.434-.638-1.869-.371-.434-.87-.652-1.495-.652-.62 0-1.13.225-1.534.676-.404.45-.648 1.065-.727 1.845h4.394zm7.567-3.527l-.048 1.453a2.299 2.299 0 00-.338-.076 2.487 2.487 0 00-.306-.02c-.703 0-1.245.245-1.625.736-.381.49-.571 1.189-.571 2.095v4.126h-1.54V6.73h1.394v1.7c.231-.593.551-1.045.962-1.358.409-.313.885-.47 1.428-.47.091 0 .191.005.298.014l.346.034zm1.351-3.941h1.54v5.37c.305-.505.684-.883 1.14-1.133.454-.25.989-.375 1.604-.375 1.016 0 1.833.379 2.454 1.138.62.759.931 1.766.931 3.023 0 1.293-.316 2.344-.948 3.15-.63.807-1.443 1.21-2.438 1.21-.626 0-1.182-.15-1.67-.452-.485-.303-.886-.747-1.202-1.335v1.66h-1.411V2.707zm3.907 5.043c-.727 0-1.303.274-1.728.821-.425.549-.639 1.298-.639 2.25 0 .926.214 1.668.639 2.223.425.556.985.833 1.68.833.674 0 1.21-.27 1.608-.81.398-.539.598-1.272.598-2.198 0-.957-.196-1.716-.586-2.278-.39-.56-.914-.841-1.572-.841zm5.574-1.021h1.54v4.57c0 .852.148 1.478.443 1.88.297.402.752.603 1.371.603.713 0 1.258-.276 1.634-.827.375-.552.563-1.355.563-2.411V6.729h1.54v8.235h-1.41v-1.575c-.305.576-.692 1.004-1.162 1.283-.471.28-1.034.42-1.69.42-.93 0-1.634-.292-2.111-.874-.479-.582-.718-1.44-.718-2.572V6.729zm13.929-.081l-.049 1.453a2.233 2.233 0 00-.337-.076 2.466 2.466 0 00-.307-.02c-.702 0-1.243.245-1.625.736-.381.49-.57 1.189-.57 2.095v4.126h-1.54V6.73h1.394v1.7c.231-.593.551-1.045.962-1.358.41-.313.885-.47 1.428-.47.092 0 .19.005.297.014l.347.034zm.802.081h1.648l2.244 6.76 2.223-6.76h1.553l-3.283 9.066c-.357 1.004-.756 1.713-1.204 2.125-.448.411-1.023.617-1.727.617a4.079 4.079 0 01-1.005-.12l.129-1.26a2.746 2.746 0 00.725.103c.373 0 .703-.153.985-.46.281-.307.559-.815.833-1.525l-3.121-8.547zM66.813 18.764l-.064 1.372a7.66 7.66 0 00-1.29-.407 6.108 6.108 0 00-1.285-.135c-1.374 0-2.465.398-3.271 1.193-.808.795-1.212 1.868-1.212 3.219 0 1.367.402 2.441 1.207 3.223s1.902 1.173 3.292 1.173c.44 0 .869-.04 1.288-.122.418-.08.83-.2 1.239-.357l.049 1.436c-.397.125-.82.22-1.27.286-.45.065-.927.097-1.43.097-1.87 0-3.344-.504-4.423-1.515-1.08-1.01-1.62-2.386-1.62-4.13 0-1.764.55-3.168 1.651-4.213 1.102-1.044 2.581-1.567 4.44-1.567.498 0 .973.037 1.426.11a6.37 6.37 0 011.273.337zm1.584-1.309h1.54v5.355a2.917 2.917 0 011.124-1.141c.46-.256 1.001-.384 1.622-.384.932 0 1.638.293 2.117.88.48.586.719 1.444.719 2.574v4.972h-1.54v-4.628c0-.843-.15-1.468-.45-1.877-.299-.408-.76-.612-1.386-.612-.685 0-1.224.257-1.617.772-.392.516-.59 1.232-.59 2.15v4.195h-1.54V17.455zm13.825 3.941l-.049 1.453a2.18 2.18 0 00-.643-.096c-.703 0-1.245.245-1.624.736-.381.49-.572 1.19-.572 2.095v4.127h-1.54v-8.234h1.394v1.7c.231-.593.551-1.046.961-1.359a2.29 2.29 0 011.429-.47c.091 0 .19.006.298.014l.346.034zm1.323-2.154h1.54v-1.531h-1.54v1.532zm0 10.469h1.54v-8.234h-1.54v8.234zm8.522-8.017l-.063 1.25a5.084 5.084 0 00-1.022-.357 4.732 4.732 0 00-1.064-.12c-.416 0-.75.085-1.002.256-.251.17-.377.398-.377.681 0 .252.103.476.31.673.206.198.637.45 1.291.754.868.4 1.465.789 1.792 1.167.325.38.489.835.489 1.368 0 .747-.303 1.34-.909 1.78-.605.44-1.422.66-2.455.66a6.101 6.101 0 01-2.186-.404l.05-1.287a5.5 5.5 0 001.127.43c.376.096.736.144 1.08.144.507 0 .909-.108 1.208-.325a1.03 1.03 0 00.448-.88c0-.273-.088-.509-.265-.707-.178-.199-.59-.456-1.239-.772-.874-.422-1.473-.814-1.796-1.177A1.865 1.865 0 0187 23.544c0-.647.273-1.169.821-1.566.547-.399 1.276-.598 2.188-.598a6.967 6.967 0 012.06.313zm4.481-2.738v2.52h1.989v1.15h-1.99v4.286c0 .643.094 1.1.284 1.372.188.27.498.405.93.405.107 0 .23-.014.37-.043.14-.03.298-.077.47-.142l.016 1.206a5.01 5.01 0 01-1.254.16c-.843 0-1.446-.215-1.81-.646-.364-.432-.545-1.154-.545-2.168v-4.43h-1.669v-1.15h1.717v-2.013l1.492-.507zm16.824-.192l-.064 1.372a7.614 7.614 0 00-1.291-.407 6.11 6.11 0 00-1.283-.135c-1.374 0-2.465.398-3.273 1.193-.808.795-1.211 1.868-1.211 3.219 0 1.367.402 2.441 1.208 3.223.804.782 1.902 1.173 3.292 1.173.439 0 .868-.04 1.287-.122.418-.08.831-.2 1.239-.357l.049 1.436c-.397.125-.82.22-1.27.286-.45.065-.927.097-1.43.097-1.87 0-3.344-.504-4.424-1.515-1.079-1.01-1.62-2.386-1.62-4.13 0-1.764.551-3.168 1.653-4.213 1.1-1.044 2.58-1.567 4.439-1.567.499 0 .974.037 1.426.11a6.45 6.45 0 011.273.337zm1.583-1.309h1.54v5.355c.289-.506.663-.886 1.126-1.141.46-.256 1-.384 1.622-.384.93 0 1.636.293 2.116.88.479.586.718 1.444.718 2.574v4.972h-1.54v-4.628c0-.843-.15-1.468-.449-1.877-.3-.408-.761-.612-1.387-.612-.685 0-1.224.257-1.616.772-.393.516-.59 1.232-.59 2.15v4.195h-1.54V17.455zm9.228 4.022h1.54v4.57c0 .852.147 1.478.443 1.88.295.402.752.603 1.37.603.713 0 1.257-.276 1.634-.828.374-.551.562-1.354.562-2.41v-3.815h1.54v8.234h-1.41v-1.575c-.305.576-.691 1.004-1.162 1.283-.47.28-1.032.42-1.689.42-.93 0-1.633-.292-2.112-.874-.478-.582-.716-1.44-.716-2.572v-4.916zm13.928-.081l-.048 1.453a2.207 2.207 0 00-.338-.076 2.387 2.387 0 00-.306-.02c-.703 0-1.245.245-1.624.736-.381.49-.572 1.19-.572 2.095v4.127h-1.54v-8.234h1.394v1.7c.231-.593.551-1.046.961-1.359.411-.313.887-.47 1.429-.47.09 0 .19.006.298.014l.346.034zm7.065.358l-.12 1.318a3.387 3.387 0 00-.835-.33 3.842 3.842 0 00-.951-.117c-.856 0-1.548.273-2.078.817-.531.544-.795 1.256-.795 2.136 0 .9.256 1.623.771 2.167.514.544 1.199.817 2.055.817.312 0 .625-.04.941-.12.314-.08.636-.2.964-.36l.081 1.352c-.344.127-.702.22-1.071.28-.37.062-.751.092-1.143.092-1.268 0-2.284-.383-3.052-1.15-.767-.765-1.151-1.78-1.151-3.047 0-1.259.396-2.274 1.188-3.043.791-.769 1.837-1.153 3.137-1.153.381 0 .743.027 1.087.083.342.056.666.142.972.258zm1.587-4.299h1.54v5.355c.289-.506.664-.886 1.124-1.141.461-.256 1.002-.384 1.623-.384.932 0 1.637.293 2.117.88.478.586.719 1.444.719 2.574v4.972h-1.54v-4.628c0-.843-.15-1.468-.45-1.877-.299-.408-.761-.612-1.387-.612-.685 0-1.223.257-1.617.772-.392.516-.589 1.232-.589 2.15v4.195h-1.54V17.455z" fill="#233289"/><path d="M58.6 33.096h1.06v6.7c0 1.309.248 2.285.745 2.93.498.645 1.252.966 2.262.966 1.016 0 1.785-.344 2.306-1.034.521-.69.782-1.708.782-3.054v-6.508h.962v6.572c0 1.668-.341 2.916-1.024 3.743-.683.825-1.714 1.239-3.09 1.239-1.319 0-2.315-.403-2.99-1.208-.675-.805-1.013-1.991-1.013-3.559v-6.787zm17.264 6.381v4.98h-1.027v-4.733c0-.916-.162-1.591-.483-2.023-.32-.432-.823-.648-1.509-.648-.76 0-1.357.279-1.789.836-.431.557-.647 1.334-.647 2.331v4.238h-1.026v-8.17h.946v1.556c.301-.575.684-1.004 1.15-1.289.465-.285 1.018-.427 1.658-.427.887 0 1.564.287 2.028.86.466.572.699 1.401.699 2.489zm2.196-5.679h1.188v-1.34h-1.189v1.34zm.097 10.66h1.027v-8.17h-1.027v8.17zm2.511-8.17h1.086l2.324 7.265 2.404-7.265h.988l-2.837 8.17h-1.23l-2.735-8.17zm14.267 3.679v.597h-5.806c.03 1.03.302 1.819.815 2.367.51.55 1.23.825 2.16.825a4.24 4.24 0 001.102-.148 5.263 5.263 0 001.108-.442v1.016c-.36.156-.73.273-1.11.35a5.933 5.933 0 01-1.191.117c-1.213 0-2.162-.381-2.849-1.144-.686-.763-1.03-1.824-1.03-3.184 0-1.27.332-2.291.997-3.065.663-.773 1.535-1.16 2.612-1.16.977 0 1.75.347 2.328 1.042.577.695.864 1.638.864 2.83zm-.994-.17c-.06-.914-.289-1.615-.686-2.105-.4-.49-.942-.734-1.631-.734-.668 0-1.226.255-1.673.766-.446.51-.71 1.203-.791 2.074h4.781zm6.553-3.565v1.06a3.922 3.922 0 00-.319-.06 1.891 1.891 0 00-.254-.02c-.694 0-1.236.26-1.63.776-.392.516-.587 1.233-.587 2.149v4.32h-1.027v-8.17h.946v1.74c.205-.582.51-1.034.919-1.354a2.25 2.25 0 011.429-.481c.074 0 .154.003.237.01.083.007.178.017.286.03zm5.862.238v.96a5.064 5.064 0 00-.945-.304 4.653 4.653 0 00-.985-.105c-.518 0-.937.11-1.252.329-.317.218-.475.503-.475.855 0 .486.533.971 1.601 1.455.107.054.186.092.235.113.835.39 1.411.766 1.729 1.127.319.361.477.795.477 1.303 0 .717-.271 1.288-.813 1.712-.541.426-1.269.638-2.186.638-.402 0-.784-.032-1.146-.096a4.57 4.57 0 01-1.01-.301v-.976c.35.17.699.299 1.05.384.351.086.698.127 1.041.127.589 0 1.064-.13 1.428-.395.364-.264.546-.601.546-1.011 0-.348-.108-.639-.32-.876-.212-.238-.742-.553-1.589-.949-.835-.4-1.393-.76-1.676-1.083a1.708 1.708 0 01-.425-1.17c0-.592.247-1.076.743-1.452.495-.376 1.141-.563 1.937-.563.372 0 .727.023 1.066.068.34.045.663.115.969.21zm1.893-2.672h1.186v-1.34h-1.186v1.34zm.096 10.66h1.026v-8.17h-1.026v8.17zm5.282-10.596v2.426h1.925v.829h-1.925v4.796c0 .666.089 1.128.268 1.39.176.26.478.388.904.388.141 0 .282-.015.425-.047a3.29 3.29 0 00.425-.129v.92c-.171.051-.345.09-.519.114a3.926 3.926 0 01-.534.037c-.724 0-1.238-.188-1.54-.562-.304-.374-.455-1.018-.455-1.933v-4.974h-1.669v-.83h1.669v-2.065l1.026-.36zm2.966 2.426h1.093l2.375 7.088 2.391-7.088h1.039l-3.285 9.38c-.295.834-.628 1.432-.999 1.793-.369.36-.834.54-1.393.54a4.127 4.127 0 01-.836-.096l.081-.917a5.715 5.715 0 00.675.087c.393 0 .72-.163.983-.487.263-.324.54-.925.829-1.803l-2.953-8.497z" fill="#D81E05"/></g><defs><clipPath id="clip0_10420_41517"><path fill="#fff" d="M0 0h154v48H0z"/></clipPath></defs></svg>