<svg width="227" height="229" viewBox="0 0 227 229" fill="none" xmlns="http://www.w3.org/2000/svg">
<g>
<path d="M76.4628 182.132H32.0674V188.644H76.4628V182.132Z" fill="white"/>
<path d="M76.4628 171.753H32.0674V178.265H76.4628V171.753Z" fill="white"/>
<path d="M76.4628 161.38H32.0674V167.892H76.4628V161.38Z" fill="white"/>
<path d="M40.1777 119.469H32.0674V146.734H40.1777V119.469Z" fill="white"/>
<path d="M67.3916 119.469H59.2812V146.734H67.3916V119.469Z" fill="white"/>
<path d="M58.3208 119.469H50.2104V146.734H58.3208V119.469Z" fill="white"/>
<path d="M49.2495 119.469H41.1392V146.734H49.2495V119.469Z" fill="white"/>
<path d="M76.4633 119.469H68.353V146.734H76.4633V119.469Z" fill="white"/>
<path d="M12.8484 119.469H0V120.56H12.8484V119.469Z" fill="white"/>
<path d="M12.8484 121.309H0V122.4H12.8484V121.309Z" fill="white"/>
<path d="M12.8484 123.144H0V124.235H12.8484V123.144Z" fill="white"/>
<path d="M12.8484 124.983H0V126.075H12.8484V124.983Z" fill="white"/>
<path d="M12.8484 126.818H0V127.91H12.8484V126.818Z" fill="white"/>
<path d="M12.8484 128.658H0V129.749H12.8484V128.658Z" fill="white"/>
<path d="M12.8484 130.498H0V131.589H12.8484V130.498Z" fill="white"/>
<path d="M12.8484 132.333H0V133.424H12.8484V132.333Z" fill="white"/>
<path d="M12.8484 134.173H0V135.264H12.8484V134.173Z" fill="white"/>
<path d="M12.8484 136.013H0V137.104H12.8484V136.013Z" fill="white"/>
<path d="M12.8484 137.848H0V138.939H12.8484V137.848Z" fill="white"/>
<path d="M12.8484 139.688H0V140.779H12.8484V139.688Z" fill="white"/>
<path d="M12.8484 141.526H0V142.618H12.8484V141.526Z" fill="white"/>
<path d="M12.8484 143.362H0V144.454H12.8484V143.362Z" fill="white"/>
<path d="M12.8484 145.201H0V146.292H12.8484V145.201Z" fill="white"/>
<path d="M12.8484 147.036H0V148.127H12.8484V147.036Z" fill="white"/>
<path d="M12.8484 148.876H0V149.967H12.8484V148.876Z" fill="white"/>
<path d="M12.8484 150.715H0V151.806H12.8484V150.715Z" fill="white"/>
<path d="M12.8484 152.551H0V153.642H12.8484V152.551Z" fill="white"/>
<path d="M12.8484 154.39H0V155.481H12.8484V154.39Z" fill="white"/>
<path d="M12.8484 156.229H0V157.321H12.8484V156.229Z" fill="white"/>
<path d="M12.8484 158.064H0V159.156H12.8484V158.064Z" fill="white"/>
<path d="M12.8484 159.904H0V160.996H12.8484V159.904Z" fill="white"/>
<path d="M12.8484 161.74H0V162.832H12.8484V161.74Z" fill="white"/>
<path d="M12.8484 163.579H0V164.67H12.8484V163.579Z" fill="white"/>
<path d="M12.8484 165.419H0V166.51H12.8484V165.419Z" fill="white"/>
<path d="M12.8484 167.254H0V168.345H12.8484V167.254Z" fill="white"/>
<path d="M12.8484 169.094H0V170.185H12.8484V169.094Z" fill="white"/>
<path d="M12.8484 170.934H0V172.025H12.8484V170.934Z" fill="white"/>
<path d="M12.8484 172.769H0V173.86H12.8484V172.769Z" fill="white"/>
<path d="M12.8484 174.608H0V175.7H12.8484V174.608Z" fill="white"/>
<path d="M12.8484 176.443H0V177.535H12.8484V176.443Z" fill="white"/>
<path d="M12.8484 178.283H0V179.374H12.8484V178.283Z" fill="white"/>
<path d="M12.8484 180.123H0V181.214H12.8484V180.123Z" fill="white"/>
<path d="M12.8484 181.958H0V183.049H12.8484V181.958Z" fill="white"/>
<path d="M12.8484 183.798H0V184.889H12.8484V183.798Z" fill="white"/>
<path d="M12.8484 185.638H0V186.729H12.8484V185.638Z" fill="white"/>
<path d="M12.8484 187.473H0V188.564H12.8484V187.473Z" fill="white"/>
<path d="M12.8484 189.312H0V190.403H12.8484V189.312Z" fill="white"/>
<path d="M12.8484 191.152H0V192.244H12.8484V191.152Z" fill="white"/>
<path d="M12.8484 192.987H0V194.079H12.8484V192.987Z" fill="white"/>
<path d="M12.8484 194.827H0V195.918H12.8484V194.827Z" fill="white"/>
<path d="M12.8484 196.662H0V197.758H12.8484V196.662Z" fill="white"/>
<path d="M12.8484 198.502H0V199.598H12.8484V198.502Z" fill="white"/>
<path d="M12.8484 200.341H0V201.437H12.8484V200.341Z" fill="white"/>
<path d="M12.8484 202.177H0V203.273H12.8484V202.177Z" fill="white"/>
<path d="M12.8484 204.016H0V205.111H12.8484V204.016Z" fill="white"/>
<path d="M12.8484 205.855H0V206.951H12.8484V205.855Z" fill="white"/>
<path d="M12.8484 207.69H0V208.786H12.8484V207.69Z" fill="white"/>
<path d="M12.8484 209.53H0V210.626H12.8484V209.53Z" fill="white"/>
<path d="M12.8484 211.365H0V212.461H12.8484V211.365Z" fill="white"/>
<path d="M12.8484 213.205H0V214.301H12.8484V213.205Z" fill="white"/>
<path d="M12.8484 215.045H0V216.141H12.8484V215.045Z" fill="white"/>
<path d="M12.8484 216.88H0V217.976H12.8484V216.88Z" fill="white"/>
<path d="M12.8484 218.72H0V219.815H12.8484V218.72Z" fill="white"/>
<path d="M12.8484 220.56H0V221.655H12.8484V220.56Z" fill="white"/>
<path d="M12.8484 222.395H0V223.49H12.8484V222.395Z" fill="white"/>
<path d="M12.8484 224.234H0V225.33H12.8484V224.234Z" fill="white"/>
<path d="M12.8484 226.069H0V227.165H12.8484V226.069Z" fill="white"/>
<path d="M12.8484 227.909H0V229.005H12.8484V227.909Z" fill="white"/>
<path d="M27.1116 119.469H14.2632V120.56H27.1116V119.469Z" fill="white"/>
<path d="M27.1116 121.309H14.2632V122.4H27.1116V121.309Z" fill="white"/>
<path d="M27.1116 123.144H14.2632V124.235H27.1116V123.144Z" fill="white"/>
<path d="M27.1116 124.983H14.2632V126.075H27.1116V124.983Z" fill="white"/>
<path d="M27.1116 126.818H14.2632V127.91H27.1116V126.818Z" fill="white"/>
<path d="M27.1116 128.658H14.2632V129.749H27.1116V128.658Z" fill="white"/>
<path d="M27.1116 130.498H14.2632V131.589H27.1116V130.498Z" fill="white"/>
<path d="M27.1116 132.333H14.2632V133.424H27.1116V132.333Z" fill="white"/>
<path d="M27.1116 134.173H14.2632V135.264H27.1116V134.173Z" fill="white"/>
<path d="M27.1116 136.013H14.2632V137.104H27.1116V136.013Z" fill="white"/>
<path d="M27.1116 137.848H14.2632V138.939H27.1116V137.848Z" fill="white"/>
<path d="M27.1116 139.688H14.2632V140.779H27.1116V139.688Z" fill="white"/>
<path d="M27.1116 141.526H14.2632V142.618H27.1116V141.526Z" fill="white"/>
<path d="M27.1116 143.362H14.2632V144.454H27.1116V143.362Z" fill="white"/>
<path d="M27.1116 145.201H14.2632V146.292H27.1116V145.201Z" fill="white"/>
<path d="M27.1116 147.036H14.2632V148.127H27.1116V147.036Z" fill="white"/>
<path d="M27.1116 148.876H14.2632V149.967H27.1116V148.876Z" fill="white"/>
<path d="M27.1116 150.715H14.2632V151.806H27.1116V150.715Z" fill="white"/>
<path d="M27.1116 152.551H14.2632V153.642H27.1116V152.551Z" fill="white"/>
<path d="M27.1116 154.39H14.2632V155.481H27.1116V154.39Z" fill="white"/>
<path d="M27.1116 156.229H14.2632V157.321H27.1116V156.229Z" fill="white"/>
<path d="M27.1116 158.064H14.2632V159.156H27.1116V158.064Z" fill="white"/>
<path d="M27.1116 159.904H14.2632V160.996H27.1116V159.904Z" fill="white"/>
<path d="M27.1116 161.74H14.2632V162.832H27.1116V161.74Z" fill="white"/>
<path d="M27.1116 163.579H14.2632V164.67H27.1116V163.579Z" fill="white"/>
<path d="M27.1116 165.419H14.2632V166.51H27.1116V165.419Z" fill="white"/>
<path d="M27.1116 167.254H14.2632V168.345H27.1116V167.254Z" fill="white"/>
<path d="M27.1116 169.094H14.2632V170.185H27.1116V169.094Z" fill="white"/>
<path d="M27.1116 170.934H14.2632V172.025H27.1116V170.934Z" fill="white"/>
<path d="M27.1116 172.769H14.2632V173.86H27.1116V172.769Z" fill="white"/>
<path d="M27.1116 174.608H14.2632V175.7H27.1116V174.608Z" fill="white"/>
<path d="M27.1116 176.443H14.2632V177.535H27.1116V176.443Z" fill="white"/>
<path d="M27.1116 178.283H14.2632V179.374H27.1116V178.283Z" fill="white"/>
<path d="M27.1116 180.123H14.2632V181.214H27.1116V180.123Z" fill="white"/>
<path d="M27.1116 181.958H14.2632V183.049H27.1116V181.958Z" fill="white"/>
<path d="M27.1116 183.798H14.2632V184.889H27.1116V183.798Z" fill="white"/>
<path d="M27.1116 185.638H14.2632V186.729H27.1116V185.638Z" fill="white"/>
<path d="M27.1116 187.473H14.2632V188.564H27.1116V187.473Z" fill="white"/>
<path d="M27.1116 189.312H14.2632V190.403H27.1116V189.312Z" fill="white"/>
<path d="M27.1116 191.152H14.2632V192.244H27.1116V191.152Z" fill="white"/>
<path d="M27.1116 192.987H14.2632V194.079H27.1116V192.987Z" fill="white"/>
<path d="M27.1116 194.827H14.2632V195.918H27.1116V194.827Z" fill="white"/>
<path d="M27.1116 196.662H14.2632V197.758H27.1116V196.662Z" fill="white"/>
<path d="M27.1116 198.502H14.2632V199.598H27.1116V198.502Z" fill="white"/>
<path d="M27.1116 200.341H14.2632V201.437H27.1116V200.341Z" fill="white"/>
<path d="M27.1116 202.177H14.2632V203.273H27.1116V202.177Z" fill="white"/>
<path d="M27.1116 204.016H14.2632V205.111H27.1116V204.016Z" fill="white"/>
<path d="M27.1116 205.855H14.2632V206.951H27.1116V205.855Z" fill="white"/>
<path d="M27.1116 207.69H14.2632V208.786H27.1116V207.69Z" fill="white"/>
<path d="M27.1116 209.53H14.2632V210.626H27.1116V209.53Z" fill="white"/>
<path d="M27.1116 211.365H14.2632V212.461H27.1116V211.365Z" fill="white"/>
<path d="M27.1116 213.205H14.2632V214.301H27.1116V213.205Z" fill="white"/>
<path d="M27.1116 215.045H14.2632V216.141H27.1116V215.045Z" fill="white"/>
<path d="M27.1116 216.88H14.2632V217.976H27.1116V216.88Z" fill="white"/>
<path d="M27.1116 218.72H14.2632V219.815H27.1116V218.72Z" fill="white"/>
<path d="M27.1116 220.56H14.2632V221.655H27.1116V220.56Z" fill="white"/>
<path d="M27.1116 222.395H14.2632V223.49H27.1116V222.395Z" fill="white"/>
<path d="M27.1116 224.234H14.2632V225.33H27.1116V224.234Z" fill="white"/>
<path d="M27.1116 226.069H14.2632V227.165H27.1116V226.069Z" fill="white"/>
<path d="M27.1116 227.909H14.2632V229.005H27.1116V227.909Z" fill="white"/>
<path d="M27.4808 0H25.7324V109.366H27.4808V0Z" fill="white"/>
<path d="M24.2636 0H22.5151V109.366H24.2636V0Z" fill="white"/>
<path d="M21.0472 0H19.2988V109.366H21.0472V0Z" fill="white"/>
<path d="M17.8309 0H16.0825V109.366H17.8309V0Z" fill="white"/>
<path d="M14.6146 0H12.8662V109.366H14.6146V0Z" fill="white"/>
<path d="M11.3983 0H9.6499V109.366H11.3983V0Z" fill="white"/>
<path d="M8.18103 0H6.43262V109.366H8.18103V0Z" fill="white"/>
<path d="M4.96472 0H3.21631V109.366H4.96472V0Z" fill="white"/>
<path d="M1.74841 0H0V109.366H1.74841V0Z" fill="white"/>
<path d="M108.455 119.469H95.6509V228.835H108.455V119.469Z" fill="white"/>
<path d="M93.8581 119.469H81.0542V228.835H93.8581V119.469Z" fill="white"/>
<path d="M32.0674 82.2129V109.366H32.1831H37.1614H41.895H46.9889H51.7181H56.8121H61.5457H66.6397H76.4628V82.2129H66.6397H61.5457H56.8121H51.7181H46.9889H41.895H37.1614H32.1831H32.0674Z" fill="white"/>
<path d="M227 103.607H151.52V109.278H227V103.607Z" fill="white"/>
<path d="M227 88.4082H151.52V94.0785H227V88.4082Z" fill="white"/>
<path d="M227 80.8096H151.52V86.4799H227V80.8096Z" fill="white"/>
<path d="M227 96.0078H151.52V101.678H227V96.0078Z" fill="white"/>
<path d="M188.691 12.2891H170.602V14.0797H188.691V12.2891Z" fill="white"/>
<path d="M188.691 26.8555H170.602V28.6461H188.691V26.8555Z" fill="white"/>
<path d="M188.691 9.8623H170.602V11.6529H188.691V9.8623Z" fill="white"/>
<path d="M188.691 24.4268H170.602V26.2174H188.691V24.4268Z" fill="white"/>
<path d="M188.691 7.43457H170.602V9.2252H188.691V7.43457Z" fill="white"/>
<path d="M188.691 21.999H170.602V23.7896H188.691V21.999Z" fill="white"/>
<path d="M188.691 5.00684H170.602V6.79747H188.691V5.00684Z" fill="white"/>
<path d="M188.691 19.5723H170.602V21.3629H188.691V19.5723Z" fill="white"/>
<path d="M188.691 2.5791H170.602V4.36973H188.691V2.5791Z" fill="white"/>
<path d="M188.691 17.1445H170.602V18.9352H188.691V17.1445Z" fill="white"/>
<path d="M188.691 0.151367H170.602V1.942H188.691V0.151367Z" fill="white"/>
<path d="M188.691 14.7168H170.602V16.5074H188.691V14.7168Z" fill="white"/>
<path d="M207.843 12.2891H189.754V14.0797H207.843V12.2891Z" fill="white"/>
<path d="M207.843 26.8555H189.754V28.6461H207.843V26.8555Z" fill="white"/>
<path d="M207.843 9.8623H189.754V11.6529H207.843V9.8623Z" fill="white"/>
<path d="M207.843 24.4268H189.754V26.2174H207.843V24.4268Z" fill="white"/>
<path d="M207.843 7.43457H189.754V9.2252H207.843V7.43457Z" fill="white"/>
<path d="M207.843 21.999H189.754V23.7896H207.843V21.999Z" fill="white"/>
<path d="M207.843 5.00684H189.754V6.79747H207.843V5.00684Z" fill="white"/>
<path d="M207.843 19.5723H189.754V21.3629H207.843V19.5723Z" fill="white"/>
<path d="M207.843 2.5791H189.754V4.36973H207.843V2.5791Z" fill="white"/>
<path d="M207.843 17.1445H189.754V18.9352H207.843V17.1445Z" fill="white"/>
<path d="M207.843 0.151367H189.754V1.942H207.843V0.151367Z" fill="white"/>
<path d="M207.843 14.7168H189.754V16.5074H207.843V14.7168Z" fill="white"/>
<path d="M227 12.2891H208.911V14.0797H227V12.2891Z" fill="white"/>
<path d="M227 26.8555H208.911V28.6461H227V26.8555Z" fill="white"/>
<path d="M227 9.8623H208.911V11.6529H227V9.8623Z" fill="white"/>
<path d="M227 24.4268H208.911V26.2174H227V24.4268Z" fill="white"/>
<path d="M227 7.43457H208.911V9.2252H227V7.43457Z" fill="white"/>
<path d="M227 21.999H208.911V23.7896H227V21.999Z" fill="white"/>
<path d="M227 5.00684H208.911V6.79747H227V5.00684Z" fill="white"/>
<path d="M227 19.5723H208.911V21.3629H227V19.5723Z" fill="white"/>
<path d="M227 2.5791H208.911V4.36973H227V2.5791Z" fill="white"/>
<path d="M227 17.1445H208.911V18.9352H227V17.1445Z" fill="white"/>
<path d="M227 0.151367H208.911V1.942H227V0.151367Z" fill="white"/>
<path d="M227 14.7168H208.911V16.5074H227V14.7168Z" fill="white"/>
<path d="M169.534 12.2891H151.445V14.0797H169.534V12.2891Z" fill="white"/>
<path d="M169.534 26.8555H151.445V28.6461H169.534V26.8555Z" fill="white"/>
<path d="M169.534 9.8623H151.445V11.6529H169.534V9.8623Z" fill="white"/>
<path d="M169.534 24.4268H151.445V26.2174H169.534V24.4268Z" fill="white"/>
<path d="M169.534 7.43457H151.445V9.2252H169.534V7.43457Z" fill="white"/>
<path d="M169.534 21.999H151.445V23.7896H169.534V21.999Z" fill="white"/>
<path d="M169.534 5.00684H151.445V6.79747H169.534V5.00684Z" fill="white"/>
<path d="M169.534 19.5723H151.445V21.3629H169.534V19.5723Z" fill="white"/>
<path d="M169.534 2.5791H151.445V4.36973H169.534V2.5791Z" fill="white"/>
<path d="M169.534 17.1445H151.445V18.9352H169.534V17.1445Z" fill="white"/>
<path d="M169.534 0.151367H151.445V1.942H169.534V0.151367Z" fill="white"/>
<path d="M169.534 14.7168H151.445V16.5074H169.534V14.7168Z" fill="white"/>
<path d="M146.716 0.151367H138.094V109.277H146.716V0.151367Z" fill="white"/>
<path d="M136.941 0.151367H128.319V109.277H136.941V0.151367Z" fill="white"/>
<path d="M127.167 0.151367H118.545V109.277H127.167V0.151367Z" fill="white"/>
<path d="M108.455 0.151367H81.624V7.2827H108.455V0.151367Z" fill="white"/>
<path d="M108.455 8.90039H81.624V15.319H108.455V8.90039Z" fill="white"/>
<path d="M108.455 16.9355H81.624V22.7128H108.455V16.9355Z" fill="white"/>
<path d="M108.455 24.3291H81.624V29.5273H108.455V24.3291Z" fill="white"/>
<path d="M108.455 31.1445H81.624V35.826H108.455V31.1445Z" fill="white"/>
<path d="M108.455 37.4385H81.624V41.6523H108.455V37.4385Z" fill="white"/>
<path d="M108.455 43.2695H81.624V47.0601H108.455V43.2695Z" fill="white"/>
<path d="M108.455 48.6758H81.624V52.0878H108.455V48.6758Z" fill="white"/>
<path d="M108.455 53.7051H81.624V56.7741H108.455V53.7051Z" fill="white"/>
<path d="M108.455 58.3916H81.624V61.1533H108.455V58.3916Z" fill="white"/>
<path d="M108.455 62.7744H81.624V65.2599H108.455V62.7744Z" fill="white"/>
<path d="M108.455 66.877H81.624V69.113H108.455V66.877Z" fill="white"/>
<path d="M108.455 70.7295H81.624V72.7428H108.455V70.7295Z" fill="white"/>
<path d="M108.455 74.3643H81.624V76.1772H108.455V74.3643Z" fill="white"/>
<path d="M108.455 77.7949H81.624V79.4252H108.455V77.7949Z" fill="white"/>
<path d="M108.455 81.041H81.624V82.5109H108.455V81.041Z" fill="white"/>
<path d="M108.455 84.1289H81.624V85.4518H108.455V84.1289Z" fill="white"/>
<path d="M108.455 87.0684H81.624V88.2577H108.455V87.0684Z" fill="white"/>
<path d="M108.455 89.875H81.624V90.944H108.455V89.875Z" fill="white"/>
<path d="M108.455 92.5605H81.624V93.5227H108.455V92.5605Z" fill="white"/>
<path d="M108.455 95.1396H81.624V96.0082H108.455V95.1396Z" fill="white"/>
<path d="M108.455 97.625H81.624V98.4045H108.455V97.625Z" fill="white"/>
<path d="M108.455 100.021H81.624V100.725H108.455V100.021Z" fill="white"/>
<path d="M108.455 102.342H81.624V102.974H108.455V102.342Z" fill="white"/>
<path d="M108.455 104.592H81.624V105.162H108.455V104.592Z" fill="white"/>
<path d="M108.455 106.778H81.624V107.291H108.455V106.778Z" fill="white"/>
<path d="M108.455 108.908H81.624V109.367H108.455V108.908Z" fill="white"/>
</g>
<defs>
<rect width="227" height="229" fill="white"/>
</defs>
</svg>
