<svg width="245" height="74" viewBox="0 0 245 74" fill="none" xmlns="http://www.w3.org/2000/svg"><path d="M200.679 39.387c-1.348 0-2.521-.876-2.521-2.147 0-1.138.869-1.751 1.695-1.751 1.434 0 1.521 1.533 2.303 1.533.783 0 1.478-.833 2.608-3.592l-5.52-12.658c-.261-.657-.434-.657-1.651-.7v-1.358h7.562v1.358c-1.477.043-1.825.043-1.825.438 0 .175.043.394.13.613l3.043 7.796h.087l3.216-7.796c.087-.22.13-.438.13-.614 0-.35-.347-.394-1.825-.438v-1.357h5.302v1.358c-1.217.043-1.347.043-1.608.7l-5.563 13.008c-1.13 2.891-2.912 5.607-5.563 5.607zM92.758 49.942H91.41c-1.043-3.81-1.39-5.212-4.26-5.212h-4.433v7.533h1.565c2.651 0 2.782-.175 3.13-3.11h1.303v7.71h-1.173c-.348-2.935-.565-3.11-3.216-3.11H82.76v7.927h4.042c3.39 0 4.477-.788 5.824-5.694h1.391l-.652 7.227H76.111V61.81c2.303 0 2.564-.131 2.564-.832V45.387c0-.7-.26-.832-2.564-.832v-1.402h16.386l.26 6.789zm11.257 11.3c-1.391 1.446-3.13 2.322-4.825 2.322-2.13 0-3.607-1.358-3.607-3.33 0-2.846 2.825-4.423 8.258-5.912v-1.664c0-1.665-.739-2.54-2.304-2.54-1.086 0-2.086.525-2.086 1.27 0 .306.217.657.217 1.138 0 .964-.695 1.752-1.825 1.752-.956 0-1.826-.657-1.826-1.883 0-2.234 3.217-3.942 6.65-3.942 2.999 0 4.912 1.358 4.912 4.16v7.71c0 .788.391 1.138.826 1.138.434 0 .869-.175 1.347-.657l.695.964c-.869 1.05-2.086 1.795-3.433 1.795-1.391 0-2.478-.876-2.999-2.32zm-4.65-1.883c0 1.314.825 2.015 1.912 2.015.956 0 1.738-.438 2.607-1.183v-4.424c-2.651.701-4.52 1.62-4.52 3.592zm15.603-7.271c0 3.066 7.867 1.183 7.867 6.614 0 2.978-2.912 4.905-6.216 4.905-2.129 0-3.781-.57-5.085-1.358l-.348-3.854h1.348c.782 2.716 2.303 3.548 4.303 3.548 1.434 0 2.694-.745 2.694-2.059 0-3.416-7.823-1.27-7.823-6.7 0-2.629 2.434-4.73 5.737-4.73 1.695 0 3.086.437 4.347 1.094v3.591h-1.217c-.435-2.014-1.522-3.065-3.304-3.065-1.304.043-2.303.744-2.303 2.014zm14.821 11.475c-2.434 0-4.216-1.401-4.216-3.679v-9.416h-1.912v-1.665h1.912v-3.722l3.781-1.14v4.819h4.39v1.664h-4.39v8.76c0 1.401.739 2.102 2 2.102.956 0 1.695-.438 2.564-1.402l.956 1.14c-1.304 1.62-2.955 2.54-5.085 2.54zm27.426-.306h-16.473v-1.402c2.304 0 2.564-.131 2.564-.832V45.431c0-.7-.26-.832-2.564-.832v-1.402h9.214V44.6c-2.26 0-2.564.131-2.564.832v16.293h3.26c3.39 0 4.52-.788 5.824-5.694h1.391l-.652 7.227zm9.257-14.76c3.999 0 7.259 3.11 7.259 7.533 0 4.424-3.26 7.533-7.259 7.533-3.998 0-7.258-3.11-7.258-7.533 0-4.424 3.26-7.533 7.258-7.533zm0 1.708c-2.086 0-3.216 2.146-3.216 5.825 0 3.723 1.13 5.825 3.216 5.825 2.13 0 3.26-2.146 3.26-5.825 0-3.679-1.13-5.825-3.26-5.825zm14.952 13.052h-7.215v-1.314c1.521 0 1.738-.044 1.738-.613v-8.891c0-.657-.173-.833-.695-1.095l-1.174-.57v-.832l4.955-1.445h.696v2.759c.956-1.226 2.825-2.76 5.042-2.76 2.825 0 4.216 2.19 4.216 4.906v7.928c0 .525.13.613 1.738.613V63.3h-7.258v-1.358c1.521 0 1.695-.044 1.695-.613v-7.227c0-1.927-.739-3.066-2.434-3.066-1.13 0-2.26.613-2.999 1.402v8.89c0 .526.174.614 1.738.614v1.314h-.043zm33.423-14.76c3.999 0 7.259 3.11 7.259 7.533 0 4.424-3.26 7.533-7.259 7.533-3.998 0-7.258-3.11-7.258-7.533 0-4.424 3.303-7.533 7.258-7.533zm0 1.708c-2.086 0-3.216 2.146-3.216 5.825 0 3.723 1.13 5.825 3.216 5.825 2.13 0 3.26-2.146 3.26-5.825 0-3.679-1.13-5.825-3.26-5.825zm15.082 13.052h-7.215v-1.314c1.522 0 1.739-.044 1.739-.613v-8.891c0-.657-.174-.833-.695-1.095l-1.174-.57v-.832l4.955-1.445h.695v2.759c.957-1.226 2.825-2.76 5.042-2.76 2.825 0 4.216 2.19 4.216 4.906v7.928c0 .525.131.613 1.739.613V63.3h-7.215v-1.358c1.521 0 1.695-.044 1.695-.613v-7.227c0-1.927-.739-3.066-2.434-3.066-1.13 0-2.26.613-2.999 1.402v8.89c0 .526.174.614 1.738.614v1.314h-.087zM88.933 14.553v-1.401h7.432v1.401c-2.434 0-2.738.131-2.738.832v10.556c0 4.818-3.52 7.577-7.65 7.577-4.955 0-8.258-2.76-8.258-7.534V15.43c0-.7-.304-.832-2.608-.832v-1.402h9.215v1.402c-2.26 0-2.565.131-2.565.832v10.205c0 4.03 1.826 5.825 4.912 5.825s4.998-2.058 4.998-5.825V15.43c0-.7-.26-.876-2.738-.876zm14.517 18.702h-7.215v-1.358c1.521 0 1.739-.044 1.739-.613v-8.891c0-.657-.174-.832-.696-1.095l-1.174-.57v-.832l4.955-1.445h.696v2.76c.956-1.227 2.825-2.76 5.042-2.76 2.825 0 4.216 2.19 4.216 4.905v7.928c0 .526.13.613 1.738.613v1.358h-7.215v-1.358c1.521 0 1.695-.044 1.695-.613v-7.227c0-1.927-.739-3.066-2.434-3.066-1.13 0-2.26.614-2.999 1.402v8.891c0 .526.174.613 1.739.613v1.358h-.087zm11.822-11.957l-1.174-.57v-.831l4.955-1.446h.696v12.833c0 .526.173.613 1.738.613v1.358h-7.215v-1.358c1.521 0 1.739-.043 1.739-.613v-8.89c-.044-.614-.218-.79-.739-1.096zm2.564-10.117c1.348 0 2.347 1.05 2.347 2.409 0 1.357-1.043 2.409-2.347 2.409-1.347 0-2.39-1.052-2.39-2.41 0-1.357 1.043-2.408 2.39-2.408zm19.82 7.577v1.357c-1.217.044-1.348.044-1.609.701l-5.346 12.614h-1.999l-5.303-12.614c-.26-.657-.434-.657-1.651-.7v-1.358h7.563v1.357c-1.478.044-1.826.044-1.826.438 0 .176.044.395.13.614l2.999 8.102h.131l3.26-8.102c.087-.22.13-.438.13-.614 0-.35-.348-.394-1.825-.438v-1.357h5.346zm6.78 14.804c-3.738 0-7.084-2.716-7.084-7.315 0-4.38 3.216-7.796 7.171-7.796 4.042 0 5.998 2.978 5.998 6.614v.832h-9.432c.131 3.46 1.913 5.387 4.39 5.387 1.652 0 2.652-.657 3.782-2.234l1.217.92c-1.13 2.234-3.391 3.592-6.042 3.592zm-3.303-9.198h5.781c0-2.278-.565-4.16-2.521-4.16-1.782 0-2.956 1.488-3.26 4.16zm19.037 8.891h-8.128v-1.358c1.522 0 1.739-.044 1.739-.613v-8.891c0-.657-.174-.832-.695-1.095l-1.174-.57v-.832l4.955-1.445h.695v4.03c.957-1.665 2.739-4.03 4.477-4.03 1.434 0 2.304.964 2.304 2.278s-1 2.058-1.913 2.058c-1.173 0-1.434-1.051-2.216-1.051-.739.044-1.956 1.226-2.652 2.321v7.227c0 .57.261.657 2.608.657v1.314zm8.736-11.212c0 3.066 7.867 1.182 7.867 6.613 0 2.978-2.912 4.906-6.215 4.906-2.13 0-3.782-.57-5.085-1.358l-.348-3.854h1.347c.783 2.715 2.304 3.547 4.303 3.547 1.434 0 2.695-.744 2.695-2.058 0-3.417-7.824-1.27-7.824-6.701 0-2.628 2.434-4.73 5.738-4.73 1.695 0 3.086.437 4.346 1.094v3.592h-1.217c-.435-2.015-1.521-3.066-3.303-3.066-1.304.044-2.304.788-2.304 2.015zm10.736-.745l-1.174-.57v-.831l4.955-1.446h.696v12.833c0 .526.174.613 1.738.613v1.358h-7.215v-1.358c1.522 0 1.739-.043 1.739-.613v-8.89c-.044-.614-.217-.79-.739-1.096zm2.564-10.117c1.348 0 2.347 1.05 2.347 2.409 0 1.357-1.043 2.409-2.347 2.409-1.347 0-2.39-1.052-2.39-2.41 0-1.357.999-2.408 2.39-2.408zm41.856 7.27c3.999 0 7.258 3.11 7.258 7.533 0 4.424-3.259 7.534-7.258 7.534s-7.258-3.11-7.258-7.534c0-4.423 3.303-7.533 7.258-7.533zm0 1.708c-2.086 0-3.216 2.146-3.216 5.825 0 3.723 1.13 5.826 3.216 5.826 2.13 0 3.26-2.146 3.26-5.826 0-3.679-1.13-5.825-3.26-5.825zm16.516 13.096h-8.128v-1.358c1.522 0 1.739-.044 1.739-.613V20.422h-2.086v-1.664h2.086v-.832c0-4.117 3.216-7.49 7.432-7.49 1.913 0 3.304.745 3.304 2.059 0 1.182-.913 1.664-1.696 1.664-1.651 0-1.868-1.927-3.085-1.927-1.044 0-2.174 1.095-2.174 3.46v3.066h3.391v1.664h-3.391v10.862c0 .57.261.657 2.608.657v1.314zm-48.071.307c-2.434 0-4.216-1.402-4.216-3.68v-9.767h-1.912v-1.357h1.912v-3.723l3.782-1.139v4.818h4.129v1.358h-4.129v9.11c0 1.401.739 2.102 1.999 2.102.956 0 1.695-.438 2.564-1.401l.957 1.138c-1.304 1.577-2.956 2.54-5.086 2.54zm13.474 27.768c-.521-.263-.695-.438-.695-1.095V40.087h-.913c-1.174.92-2.521 1.402-3.955 1.402-.261 0-.565-.044-.826-.044v1.051l1.13.57c.522.262.695.438.695 1.095v5.65a4.778 4.778 0 00-3.303-1.314c-3.825 0-7.041 3.24-7.041 8.102 0 3.899 2.434 7.008 5.781 7.008 2.216 0 3.911-1.577 4.563-2.672v2.672h.739l4.912-.832v-.832l-1.087-.613zm-4.477-1.665c-.652.833-1.564 1.49-2.825 1.49-2.216 0-3.694-2.322-3.694-5.344 0-3.416 1.564-5.606 3.738-5.606 1.13 0 2.129.482 2.781 1.533v7.927zm-183.894.701c.086.307.173.57.216.876a5.149 5.149 0 00-.217-.876l-2.695-.175c-.173-.526-.434-1.007-.695-1.445.26.481.478.963.695 1.445l2.695.175zm.26 7.84l-2.26-1.533 2.26 1.533zm2.564-26.804l-5.041 5.65 5.041-5.65zm-1.651-2.059l-6.52 4.511 6.52-4.511zm32.163 31.185zM17.74 37.022l-8.085 3.197 8.085-3.197zm37.552 15.11c-.217 0-.39.044-.608.044-.13 0-.26.044-.391.044.13 0 .26-.044.39-.044.218 0 .392-.044.61-.044zM43.47 70.746c.044-.087.087-.175.13-.218a.924.924 0 00-.13.218zm-30.511-3.898a8.12 8.12 0 00.217-1.795v-.526.526a8.12 8.12 0 01-.217 1.795zm34.162-22.994l-6.476-4.511 6.476 4.511zM17.566 31.46c-.044.218-.087.393-.13.612 0-.219.086-.394.13-.613zm26.426 15.592l-4.998-5.65 4.998 5.65zm11.474-31.404c-.087-1.27-.217-2.496-.435-3.679.174 1.183.305 2.409.435 3.68zM37.994 39.255c0 1.14-.087 2.234-.348 3.373.26-1.095.348-2.234.348-3.373zm3.998-7.183c-.043-.219-.087-.394-.13-.613.043.22.087.394.13.613zm7.78 8.147l-8.084-3.197 8.084 3.197zM21.086 25.853L4.614 10.743c-.087.394-.13.788-.218 1.182.044-.394.13-.788.218-1.182l16.472 15.11zm-1.391 1.402c-.13.131-.26.306-.347.438L3.83 18.977l15.517 8.716c.13-.132.26-.307.348-.438zm34.598 25.009l-1.521-2.278c-1.218.263-2.347.7-3.39 1.226a14.92 14.92 0 013.39-1.226l1.52 2.278zm1.26-33.287l-15.517 8.716c-.13-.132-.217-.307-.347-.438.13.131.26.306.347.438l15.517-8.716zm-.522-7.052c-.043-.394-.13-.788-.217-1.182l-16.473 15.11 16.473-15.11c.087.394.13.788.217 1.182zM24.867 27.649l-.26-.394-5.52-8.541 5.52 8.54.26.395zm24.775 26.279c-.478.263-.913.613-1.304.92l1.304-.92zm-3.434 10.599zm-2.39 2.146l-2.26 1.533 2.26-1.533zm.695-6.526c.174-.525.435-1.007.696-1.445a8.82 8.82 0 00-.696 1.445l-2.694.175c-.087.307-.174.57-.218.877.087-.307.13-.57.218-.877l2.694-.175zm-14.3-42.878c.479-.22.783-.657.826-1.095-.304-.263-.826-.307-1.26-.044-.478.219-.782.657-.826 1.095.304.219.782.263 1.26.044z" fill="#000"/><path d="M51.337 9.735L37.95 25.503c.13.131.304.219.435.35l16.43-15.11c.086.394.13.788.217 1.182.173 1.227.347 2.453.434 3.68L39.69 27.254c.13.131.26.306.347.438l15.517-8.716v.482c0 1.182-.087 2.409-.174 3.547l-14.343 6.22.26.525 13.736-4.03a40.946 40.946 0 01-.652 3.33l-12.518 2.365c.043.219.087.394.13.613l11.736-.701c-.13.482-.305.964-.479 1.402-.173.481-.347.92-.521 1.401l-10.605-.306v.7l9.78 1.577a42.05 42.05 0 01-1.218 2.409l-8.867-2.19c-.043.219-.13.438-.173.657l8.04 3.197c-.217.35-.478.745-.695 1.095-.26.35-.478.701-.739 1.051l-7.302-3.679c-.13.22-.217.438-.347.657l6.52 4.511a35.48 35.48 0 01-1.74 1.884l-5.867-4.818c-.174.175-.348.394-.522.57l5.042 5.65a23.724 23.724 0 01-2.043 1.62l-4.303-6.044c.261-1.139.348-2.234.348-3.373 0-1.139-.13-2.233-.304-3.285-.13-.7-.26-1.401-.435-2.058a8.892 8.892 0 00-.304-1.008 26.52 26.52 0 00-1-2.671c-.478-1.095-.912-2.015-1.347-2.76l.13-.218 11.04-17.038c-4.737.175-10.344-.307-16.038-2.365-6.998-2.54-13.865-2.716-19.168-2.19l8.476 13.008 5.52 8.54.26.395c2.217 3.372 2.13 7.665-.26 10.993l-.304.438-6.868 9.636a23.708 23.708 0 01-2.042-1.62l5.041-5.65a6.717 6.717 0 01-.521-.57l-5.911 4.862a35.478 35.478 0 01-1.739-1.884l6.52-4.51c-.13-.22-.261-.439-.348-.658l-7.302 3.68c-.26-.351-.478-.702-.739-1.052a9.35 9.35 0 01-.695-1.095l8.04-3.197a3.668 3.668 0 01-.173-.657L8.7 38.554a41.484 41.484 0 01-1.217-2.41l9.78-1.576v-.701l-10.606.307c-.174-.438-.347-.92-.521-1.402-.174-.481-.305-.963-.478-1.401l11.735.7c.043-.218.087-.394.13-.613L5.048 29.094a40.938 40.938 0 01-.652-3.328l13.735 4.029.26-.526L4.049 23.05a32.315 32.315 0 01-.173-3.548v-.481l15.516 8.715c.13-.13.218-.306.348-.438L3.96 15.649c.087-1.27.218-2.496.435-3.679.044-.394.13-.788.217-1.182l16.473 15.11c.13-.131.261-.219.435-.35L5.352 6.538C2.31 7.151.484 7.852.484 7.852v40.995c0 .263 0 .614.044.964.608-.132 1.26-.175 1.912-.22l1.087 2.497c.217 0 .391 0 .608.044.218 0 .392.044.609.044.13 0 .26.044.391.044l1.521-2.278c1.217.263 2.347.701 3.39 1.227l-.304 2.715c.478.263.913.613 1.304.92l2.434-1.183a14.36 14.36 0 012.304 2.803l-1.609 2.19c.261.482.479.964.696 1.446l2.695.175c.087.306.174.57.217.876.217.876.348 1.796.391 2.715l-2.477 1.095c0 .22 0 .394-.044.613 0 .22-.043.395-.043.614 0 .131-.044.263-.044.394l2.26 1.533a12.2 12.2 0 01-.521 1.796 65.836 65.836 0 009.736 3.81l-.174-1.796h-.26c-.218 0-.435-.131-.566-.306-.087-.088-.13-.22-.13-.394l-.044-.35c0-.088 0-.176.044-.264a.978.978 0 01.13-.219c.13-.131.26-.219.478-.219h.218l-.13-1.576c0-.088.043-.176.13-.176h5.954c.087 0 .13.088.13.176l-.13 1.576h.217c.174 0 .348.088.478.22.044.043.087.13.13.218.044.088.044.175.044.263l-.043.35a.71.71 0 01-.13.395.741.741 0 01-.566.306h-.26l-.174 1.796a65.837 65.837 0 009.736-3.81 12.188 12.188 0 01-.522-1.796l2.26-1.533c-.043-.132-.043-.263-.043-.394-.044-.22-.044-.394-.044-.614 0-.219-.043-.394-.043-.613l-2.477-1.095c.043-.92.173-1.84.39-2.715.088-.307.131-.57.218-.876l2.695-.175c.174-.526.434-1.008.695-1.446l-1.608-2.19a15.772 15.772 0 012.304-2.803l2.434 1.183c.434-.35.869-.657 1.303-.92l-.304-2.715a14.922 14.922 0 013.39-1.227l1.522 2.278c.13 0 .26-.044.39-.044.218-.044.392-.044.61-.044.217 0 .39-.044.608-.044l1.086-2.496c.305 0 .652.044.957.087.304.044.651.088.956.132.043-.35.043-.7.043-.964V7.852s-2.955 1.183-7.606 1.883zM34.951 44.993c-.695 1.358-1.521 2.278-2.39 3.154-1.13 1.226-2.347 2.54-3.086 4.949-.652 2.19-.74 4.555-.218 7.095 0 .044 0 .088-.043.088h-.043c-.044 0-.044 0-.044-.044-2.695-2.716-3.999-5.431-3.868-8.015.13-2.847 1.912-4.774 3.781-6.789 1.913-2.015 3.868-4.117 4.65-7.49.74-3.197.262-6.788-1.52-10.73 0-.044 0-.088.043-.131.044-.044.087-.044.13 0 .13.13 6.607 10.03 2.608 17.913zm-1.651 9.81c.173.965.521 1.709.869 2.497.478 1.052 1.087 2.147 1.173 4.336H30.91c-.13-.525-.26-1.095-.348-1.62-.217-1.227-.608-3.81.174-6.482.652-2.103 1.652-3.197 2.782-4.424.26-.263.521-.57.782-.876.044-.044.087-.044.13 0 .044.044.044.088.044.131-1.173 2.322-1.565 4.512-1.173 6.439zm-8.867 1.184c0-.044.043-.132.087-.132.043 0 .13 0 .13.088.652 1.708 2.39 3.898 4.042 5.606.044.044 0 .087-.043.087h-4.912c-.043 0-.043-.043-.043-.043 1.608-2.891.739-5.607.739-5.607zm1.217-14.542c.652-1.138 1.26-2.19 1.739-3.328 1.782-4.468.695-11.3-3.086-18.264-.348.087-1.478.525-2.217-1.227v-.087c0-.044.043-.044.087-.044.043 0 2.39-.044 4.564-2.365 1.608-1.708 3.172-1.62 4.563-1.533.609.044 1.174.044 1.695-.044l.652-.131c1.522-.35 2.825-.657 3.651 1.139v.087c0 .044-.043.044-.087.044h-.13c-2.956 0-6.129 3.635-6.694 7.709-.304 2.102.261 3.503.652 4.467 1.652 3.679 2.13 7.008 1.435 9.898-.74 3.022-2.565 5.037-4.39 6.92-1.956 2.103-3.999 4.249-4.13 7.578 0 .481.044 1.007.088 1.401.043.438.087.526-.044.526-.043 0-.043 0-.087-.044-.174-.131-.739-2.628-.912-4.03-.305-3.591 1.217-6.175 2.65-8.672zm11.43 22.162c-.694 1.49-2.129 2.76-3.52 3.592a1.22 1.22 0 01-.652.175h-6.432a.871.871 0 01-.478-.131c-1.478-.832-2.956-2.103-3.651-3.636-.13-.35.087-.7.434-.7h13.822c.347 0 .608.35.478.7z" fill="#000"/><path d="M49.599 57.213c-.478.438-.913.876-1.304 1.401-.174.263-.392.526-.565.789l-.261.394c-.174.263-.304.57-.435.876-.087.131-.13.306-.174.438-.13.306-.217.613-.304.92-.13.481-.217.963-.304 1.445-.044.35-.044.657-.087 1.007v.526c0 .613.087 1.226.217 1.796.044.175.087.394.13.569 6.607-4.249 9.693-8.891 11.127-12.614a12.953 12.953 0 00-1.869-.131c-2.303.13-4.476 1.095-6.171 2.584zm-36.423 7.84v-.526c0-.35-.044-.7-.087-1.007-.044-.482-.174-1.008-.304-1.446-.087-.306-.174-.613-.305-.92-.043-.13-.13-.306-.174-.437-.13-.307-.26-.57-.434-.876l-.26-.395c-.175-.262-.349-.525-.566-.788-.391-.526-.826-.964-1.304-1.401a9.996 9.996 0 00-6.259-2.497c-.652 0-1.26 0-1.869.131 1.435 3.723 4.564 8.41 11.127 12.614.044-.175.087-.394.13-.569a5.86 5.86 0 00.305-1.883zM29.3 5.18c5.217 1.883 10.258 2.496 14.692 2.496 7.476 0 13.17-1.752 14.908-2.365V2.245l-.522.22c-.13.043-13.778 5.605-28.12.393C16.347-2.222 3.222 1.325.483 2.245v3.022l.478-.175c.174 0 14.04-5.124 28.339.088z" fill="#000"/></svg>