<svg xmlns="http://www.w3.org/2000/svg" xmlns:xlink="http://www.w3.org/1999/xlink" viewBox="0 0 155.7 34.566"><g transform="translate(-3.4 -3.334)"><defs><path id="a" d="M0 0h159.3v47.1H0z"/></defs><clipPath id="b"><use xlink:href="#a"/></clipPath><path fill="#706f6f" d="M40.1 6.3h3.1v.4c-.9.1-1 .1-1 .3v3.2c0 .7.2 1.8 1.6 1.8 1.6 0 1.8-.8 1.8-2.6V6.9c0-.2-.1-.3-1-.3v-.3H47v.4c-.9.1-1 .1-1 .3v2.9c0 1.4-.2 2.7-2.4 2.7-1.4 0-2.4-.7-2.4-2.4V7c0-.2-.1-.3-1-.3v-.4zm7.3 5.8c.9-.1.9-.1.9-.3V7c0-.2-.1-.3-.9-.3v-.4h1.8c.1.1.2.2.3.4l2.8 4V7c0-.2-.1-.3-1-.3v-.4h2.5v.4c-.8 0-.9 0-.9.5v1.5c0 1.7 0 3.2.1 3.9h-.6c-.4-.7-.7-1.2-1.2-1.9L49 7.6v4.2c0 .2.1.3 1.2.3v.4h-2.6v-.4zm6.8 0c1-.1 1-.1 1-.3V7c0-.2-.1-.3-1-.3v-.4h3.2v.4c-1 .1-1 .1-1 .3v4.8c0 .2.1.3 1 .3v.4h-3.2v-.4zm3.7-5.8H61v.4h-.4c-.4 0-.5.1-.5.3 0 .2.4 1.3.9 2.5l.6 1.7.7-1.8c.4-1 .9-2.2.9-2.4 0-.2-.1-.2-.9-.2v-.5h2.4v.4h-.3c-.4 0-.6.2-1 1.2-1.4 3.5-1.6 3.9-1.7 4.7h-.6C61 12 59.5 8.5 59 7.5c-.4-.8-.4-.8-1.1-.8v-.4zm7.2 5.8c.9-.1 1-.1 1-.3V7c0-.2-.1-.3-1-.3v-.4h3.7c.6 0 1.1-.1 1.5-.1 0 .4.1 1.4.2 1.7l-.4.1c-.3-1.1-.5-1.3-1.9-1.3h-.9c-.1 0-.2.1-.2.2v2c0 .1 0 .2.3.2h.3c1.1 0 1.1-.2 1.2-.8h.4v2H69c-.1-.6-.2-.8-1-.8h-.7c-.1 0-.2 0-.2.2v2.2c0 .1.1.2.2.2H69c.8 0 1-.2 1.2-.8l.2-.6.5.1c-.1.5-.2 1.3-.3 1.7h-5.5v-.4zm6.1 0c.9-.1 1-.1 1-.3V7c0-.2-.1-.3-1-.3v-.4h3.4c.7 0 1.1.1 1.4.3.4.2.6.6.6 1.2 0 1.3-1.5 1.5-1.5 1.6 0 0 0 .1.1.2l1.5 1.9c.4.5.5.6.9.6v.4h-1.5l-2-2.8c-.1-.1-.1-.1-.5-.1s-.4 0-.4.1v2.1c0 .2.1.3 1 .3v.4h-3.1v-.4zM73.3 9c0 .2 0 .2.6.2 1.4 0 1.6-.7 1.6-1.2 0-.7-.6-1.2-1.5-1.2-.7 0-.7 0-.7.2v2zm5.2 1.4c.3 1.1.8 1.8 1.7 1.8 1 0 1.5-.6 1.5-1.1 0-.6-.5-.8-1.1-1l-.7-.2c-1.6-.5-1.8-1.1-1.8-1.8 0-1.1 1-1.9 2.3-1.9.7 0 1.3.1 1.7.2v.4c0 .4 0 .8.1 1.3h-.4c-.2-1.1-.7-1.5-1.5-1.5s-1.4.5-1.4 1c0 .4.2.7.9.9l1.5.5c1 .3 1.3.8 1.3 1.7 0 1.2-1 1.9-2.4 1.9-.7 0-1.3-.3-2-.3 0-.5-.1-1.3-.1-1.8l.4-.1zm4.2 1.7c1-.1 1-.1 1-.3V7c0-.2-.1-.3-1-.3v-.4h3.2v.4c-1 .1-1 .1-1 .3v4.8c0 .2.1.3 1 .3v.4h-3.2v-.4zm4.8 0c1-.1 1-.1 1-.3V6.7h-1c-.3 0-.4.3-.8 1.3l-.4-.1c.1-.3.1-.8.2-1.7.2 0 .3 0 .5.1h3.6c.4 0 .7 0 1-.1 0 .8.1 1.3.2 1.7l-.4.1c-.4-1-.5-1.3-.8-1.3h-1v5.1c0 .2.1.3 1 .3v.4h-3.2v-.4zm7.5-2l-1.5-2.2c-.8-1.1-.9-1.1-1.4-1.1v-.5H95v.4c-.9 0-.9 0-.9.2 0 .1.1.2.3.6l1.1 1.8c.1.1.1.2.2.2s.1-.1.2-.2l1-1.6c.3-.5.4-.7.4-.8 0-.2-.2-.2-.8-.2v-.4h2.2v.4c-.4 0-.7.2-1.2.8L95.9 10v1.6c0 .4 0 .4 1.2.4v.4h-3.4V12c1.3.1 1.3 0 1.3-.3v-1.6zm9.9-3.9c1.6 0 2.9 1.3 2.9 3.2 0 1.9-1.3 3.2-2.9 3.2-1.6 0-2.9-1.3-2.9-3.2 0-1.9 1.3-3.2 2.9-3.2m0 6c1 0 1.8-.9 1.8-2.8s-.8-2.8-1.8-2.8-1.8.9-1.8 2.8c.1 1.9.9 2.8 1.8 2.8m3.2-.1c.9-.1 1-.1 1-.3V7c0-.2-.1-.3-1-.3v-.4h3.7c.6 0 1.1-.1 1.5-.1 0 .4.1 1.4.2 1.7l-.4.1c-.3-1.1-.5-1.3-1.9-1.3h-.9c-.1 0-.2.1-.2.2v2c0 .1 0 .2.3.2h.3c1.1 0 1.1-.2 1.2-.8h.4v2h-.3c-.1-.6-.2-.8-1-.8h-.7c-.1 0-.2 0-.2.2v2.1c0 .2.1.3 1.2.3v.4h-3.2v-.4z" class="st0" clip-path="url(#b)"/><path fill="#3c3c3b" d="M40.2 16.1h4.9v.7c-1 0-1.5.1-1.5.8 0 .3.4 1.8.8 3.3l1.1 3.9 2.1-8.7h1.6c.2 1.1.4 2.2.7 3.3l1.2 5.4 1.2-4.3c.4-1.5.7-2.8.7-3.1 0-.5-.4-.6-1.4-.6v-.7h3.9v.7c-1 0-1.3.3-1.8 1.8-1.3 4-2.2 7.5-2.4 8.9H50c0-.4-.4-2.1-.9-4l-1.2-5.3-1.3 5.4c-.5 1.8-.9 3.5-.9 3.9h-1.3c-.1-1.1-1.5-5.7-2.5-8.8-.5-1.7-.6-1.8-1.8-1.8v-.8zm16.2 10.5c1.6-.1 1.7-.2 1.8-.6.1-.5.1-1.8.1-4.3s0-3.7-.1-4.3c-.1-.4-.1-.5-1.8-.6v-.7H63c1 0 2-.1 2.7-.2 0 .8.2 2.6.3 3l-.7.1c-.5-2.1-.9-2.3-3.3-2.3h-1.6c-.2 0-.3.1-.3.3v3.6c0 .2 0 .3.6.3h.5c1.9 0 2-.3 2.2-1.4h.8v3.6h-.8c-.1-1.2-.3-1.4-1.7-1.4h-1.2c-.2 0-.3.1-.3.3v4c0 .2.1.3.3.3h3c1.4 0 1.8-.4 2.1-1.4l.4-1.1.8.2c-.2.9-.4 2.4-.5 3.1h-9.9v-.5zm12.1-3.1c.5 1.9 1.4 3.2 3.1 3.2 1.8 0 2.7-1 2.7-2s-.8-1.4-2-1.8l-1.3-.4c-2.9-.9-3.2-1.9-3.2-3.2 0-2.1 1.7-3.4 4.2-3.4 1.2 0 2.3.2 3.1.4v.7c0 .8 0 1.5.1 2.3h-.8c-.3-2-1.2-2.6-2.8-2.6-1.4 0-2.5.9-2.5 1.9 0 .7.4 1.2 1.5 1.6l2.7.9c1.7.6 2.4 1.5 2.4 3 0 2.1-1.8 3.4-4.4 3.4-1.2 0-2.4-.5-3.6-.5 0-.8-.1-2.3-.3-3.3l1.1-.2zm10.1 3.1c1.7-.1 1.8-.2 1.9-.6 0-.3.1-.9.1-1.8v-7.3h-1.8c-.5 0-.8.5-1.4 2.3l-.9-.2c.1-.6.2-1.5.3-3 .3 0 .6.1.9.1h6.4c.7 0 1.3-.1 1.9-.2.1 1.5.2 2.4.3 3l-.7.2c-.7-1.8-.9-2.3-1.4-2.3h-1.8v7.3c0 .9 0 1.5.1 1.8.1.4.1.5 1.9.6v.7h-5.8v-.6zm12.5 0c1.6-.1 1.7-.2 1.8-.6.1-.5.1-1.8.1-4.3s0-3.7-.1-4.3c0-.4-.1-.5-1.8-.6v-.7h5.6v.7c-1.6.1-1.7.2-1.8.6 0 .3-.1 1.3-.1 2v6.3c0 .5.2.7.7.7h2c1.7 0 1.9-.5 2.9-2.7l.8.2c-.2.6-.4 2.4-.5 3.2h-9.6v-.5zM107 15.9c3 0 5.3 2.3 5.3 5.8s-2.3 5.8-5.3 5.8-5.3-2.3-5.3-5.8 2.3-5.8 5.3-5.8m0 10.8c1.7 0 3.2-1.6 3.2-5s-1.5-5-3.2-5c-1.7 0-3.2 1.6-3.2 5s1.5 5 3.2 5m5.5-.1c1.5-.1 1.6-.2 1.7-.6.1-.5.1-1.8.1-4.3s0-3.7-.1-4.3c0-.4-.1-.5-1.7-.6v-.7h3.3c.1.2.3.4.5.7l5 7.3v-2.5c0-2.5 0-3.7-.1-4.3 0-.4-.1-.5-1.9-.6V16h4.6v.7c-1.5 0-1.6.1-1.7 1 0 .8-.1 1.8-.1 2.7 0 3.1 0 5.7.1 7H121c-.7-1.3-1.3-2.2-2.1-3.4l-3.9-5.6v3.2c0 2.5 0 3.7.1 4.3 0 .4.1.5 2.1.6v.7h-4.7v-.6zm12.3 0c1.7-.1 1.8-.2 1.9-.6.1-.5.1-1.8.1-4.3s0-3.7-.1-4.3c-.1-.4-.1-.5-1.9-.6v-.7h5.5c2.3 0 3.3.5 4.3 1.5.9.9 1.6 2.3 1.6 4 0 2.8-1.8 5.6-6.2 5.6h-5.3v-.6zm3.8-.8c0 .6.1.7 1.2.7 3.1 0 4.4-1.4 4.4-4.8 0-3.5-1.3-4.8-4.4-4.8-1 0-1.2.1-1.2.4v8.5zm14-9.9c3 0 5.3 2.3 5.3 5.8s-2.3 5.8-5.3 5.8-5.3-2.3-5.3-5.8 2.3-5.8 5.3-5.8m0 10.8c1.7 0 3.2-1.6 3.2-5s-1.5-5-3.2-5c-1.7 0-3.2 1.6-3.2 5s1.5 5 3.2 5" class="st1" clip-path="url(#b)"/><path fill="#3c3c3b" d="M147.8 26.6c1.5-.1 1.6-.2 1.7-.6.1-.5.1-1.8.1-4.3s0-3.7-.1-4.3c0-.4-.1-.5-1.7-.6v-.7h3.3c.1.2.3.4.5.7l5 7.3v-2.5c0-2.5 0-3.7-.1-4.3 0-.4-.1-.5-1.9-.6V16h4.5v.7c-1.5 0-1.6.1-1.7 1 0 .8-.1 1.8-.1 2.7 0 3.1 0 5.7.1 7h-1.2c-.7-1.3-1.3-2.2-2.1-3.4l-3.9-5.6v3.2c0 2.5 0 3.7.1 4.3 0 .4.1.5 2.1.6v.7h-4.7v-.6z" class="st1" clip-path="url(#b)"/></g><g transform="translate(-3.4 -3.334)"><defs><path id="c" d="M3.4 3.2h155.9v34.6H3.4z"/></defs><clipPath id="d"><use xlink:href="#c"/></clipPath><path fill="#9d9d9c" d="M21.1 36.3s13.6-2.1 13.6-11.2V6.3H21.1v30z" clip-path="url(#d)"/><path fill="#0055a3" d="M20.3 29.4c-.3-.2-5.4-3.8-9.8-6.4-4.6-2.8-6.6-5.1-6.9-7.5-.3-2.5-.1-11.9-.1-12 0-.2.2-.2.3-.1 0 0 16.7 25.8 16.8 25.9 0 0-.1.3-.3.1" clip-path="url(#d)"/></g><g transform="translate(-3.4 -3.334)"><defs><path id="e" d="M3.4 19.7c0 .1.1 3.9.8 6.1 0 .1.8 3.2 4.9 3.6 4.4.4 11.1.7 11.1.7l.1-.1-.1-.2L3.7 19.5h-.1c-.1 0-.1 0-.2.2"/></defs><clipPath id="g"><use xlink:href="#e"/></clipPath><linearGradient id="f" x1="-28.346" x2="-27.346" y1="564.662" y2="564.662" gradientTransform="matrix(16.6241 -.5705 -.5705 -16.6241 797.017 9395.874)" gradientUnits="userSpaceOnUse"><stop offset="0" stop-color="#c6c6c6"/><stop offset=".36" stop-color="#a6a6a5"/><stop offset=".654" stop-color="#90908f"/><stop offset=".828" stop-color="#878787"/><stop offset="1" stop-color="#878787"/></linearGradient><path fill="url(#f)" d="M3.5 30.6l-.4-11.1 17.3-.6.4 11.1z" clip-path="url(#g)"/></g><g transform="translate(-3.4 -3.334)"><defs><path id="h" d="M5.8 29.8c-.1 0-.3 0-.1.3 0 0 1.9 2.8 4.3 3.9 1.4.6 2.4.6 3.7 0 1.7-.8 6.7-3.3 6.8-3.3l.1-.2-.1-.1-14.7-.6z"/></defs><clipPath id="j"><use xlink:href="#h"/></clipPath><linearGradient id="i" x1="-28.346" x2="-27.346" y1="564.646" y2="564.646" gradientTransform="scale(14.8608 -14.8608) rotate(2.16 15017.412 1043.133)" gradientUnits="userSpaceOnUse"><stop offset="0" stop-color="#c6c6c6"/><stop offset=".36" stop-color="#a6a6a5"/><stop offset=".654" stop-color="#90908f"/><stop offset=".828" stop-color="#878787"/><stop offset="1" stop-color="#878787"/></linearGradient><path fill="url(#i)" d="M5.5 35.2l-.2-5.3 15.2-.6.2 5.3z" clip-path="url(#j)"/></g><g transform="translate(-3.4 -3.334)"><defs><path id="k" d="M20.4 31.1l-8 4.1c-.2.1 0 .2 0 .2.1.2 7.2 2.2 7.8-.3.4-1.8.5-3.8.5-3.8-.1-.1-.1-.2-.3-.2z"/></defs><clipPath id="m"><use xlink:href="#k"/></clipPath><linearGradient id="l" x1="-28.346" x2="-27.346" y1="564.612" y2="564.612" gradientTransform="scale(8.5968 -8.5968) rotate(4.606 7056.92 650.459)" gradientUnits="userSpaceOnUse"><stop offset="0" stop-color="#c6c6c6"/><stop offset=".36" stop-color="#a6a6a5"/><stop offset=".654" stop-color="#90908f"/><stop offset=".828" stop-color="#878787"/><stop offset="1" stop-color="#878787"/></linearGradient><path fill="url(#l)" d="M12.3 38.4l-.6-7.3 8.9-.7.5 7.3z" clip-path="url(#m)"/></g><g transform="translate(-3.4 -3.334)"><defs><path id="n" d="M0 0h159.3v47.1H0z"/></defs><clipPath id="o"><use xlink:href="#n"/></clipPath><path fill="#706f6f" d="M45.9 31.2c0 .1-.1.2-.2.2h-1.5V36c0 .2 0 .2-.2.2h-.7c-.1 0-.2 0-.2-.2v-4.6h-1.5c-.1 0-.2-.1-.2-.2v-.5c0-.1.1-.2.2-.2h4.1c.2 0 .3.1.3.2l-.1.5zm4.1 4.7c0 .1 0 .2-.1.2h-.7c-.1 0-.1 0-.1-.2v-2.2c0-.4-.1-.8-.6-.8-.3 0-.7.2-1 .4v2.6c0 .1 0 .2-.2.2h-.7c-.1 0-.1 0-.1-.1v-5.3c0-.1.1-.2.2-.2.6-.1.6-.1.7-.1.1 0 .1 0 .1.2v2c.3-.3.8-.4 1.3-.4.9 0 1.3.6 1.3 1.4v2.3zm3.9-.7c.1 0 .2 0 .2.1l.1.4v.1c0 .1 0 .1-.1.1-.4.2-.9.3-1.4.3-1.3 0-2-.8-2-2.1 0-1.2.8-2.1 2-2.1.5 0 .9.2 1.2.5.4.4.5.9.5 1.4v.1c0 .2-.1.2-.3.2h-2.4c.1.6.5 1 1.2 1 .4.2.7.1 1 0m-.4-1.5c0-.5-.3-.9-.8-.9s-.8.4-.9.9h1.7z" class="st7" clip-path="url(#o)"/><path fill="#0055a3" d="M61.1 35.9c-.5.2-1 .3-1.6.3-1.7 0-2.5-1.2-2.5-2.9s1-2.9 2.6-2.9c.6 0 1.1.1 1.5.3.1 0 .1.1.1.1v.1l-.2.6-.1.1h-.1c-.4-.2-.8-.3-1.2-.3-1.1 0-1.6 1-1.6 2 0 1.2.6 2 1.6 2 .4 0 .8-.1 1.2-.3h.1l.1.1.2.4v.1c0 .2 0 .2-.1.3m4.4.1c0 .1-.1.2-.2.2H65c-.4 0-.6-.2-.7-.5-.2.3-.7.6-1.2.6-1.1 0-1.7-.9-1.7-2 0-1.4.8-2.1 1.7-2.1.4 0 .8.2 1 .5v-.2c0-.1.1-.1.2-.1h.7c.1 0 .2.1.2.2v3h.2c.1 0 .1 0 .1.1v.3zm-1.3-2.7c-.2-.2-.5-.4-.8-.4-.5 0-.9.4-.9 1.3 0 .7.3 1.3.9 1.3.4 0 .7-.3.9-.5v-1.7zm4.2-1.2l.1.1s0 .2-.1.6c0 .1-.1.1-.1.1h-.2c-.3 0-.6.1-.8.4v2.6c0 .1-.1.2-.2.2h-.6c-.1 0-.2-.1-.2-.2v-3.5c0-.2.1-.2.2-.2h.5c.1 0 .2 0 .2.2v.3c.3-.3.5-.5 1-.5l.2-.1m3.5 3.1c.1 0 .2 0 .2.1l.1.4v.1c0 .1 0 .1-.1.1-.4.2-.9.3-1.4.3-1.3 0-2-.8-2-2.1 0-1.2.8-2.1 2-2.1.5 0 .9.2 1.2.5.4.4.5.9.5 1.4v.1c0 .2-.1.2-.3.2h-2.4c.1.6.5 1 1.2 1 .3.2.6.1 1 0m-.5-1.5c0-.5-.3-.9-.8-.9s-.8.4-.9.9h1.7zm4.6 1.5c.1 0 .2 0 .2.1l.1.4v.1c0 .1 0 .1-.1.1-.4.2-.9.3-1.4.3-1.3 0-2-.8-2-2.1 0-1.2.8-2.1 2-2.1.5 0 .9.2 1.2.5.4.4.5.9.5 1.4v.1c0 .2-.1.2-.3.2h-2.4c.1.6.5 1 1.2 1 .4.2.7.1 1 0m-.5-1.5c0-.5-.3-.9-.8-.9s-.8.4-.9.9h1.7zm3.9-1.6l.1.1s0 .2-.1.6c0 .1-.1.1-.1.1h-.2c-.3 0-.6.1-.8.4v2.6c0 .1-.1.2-.2.2h-.6c-.1 0-.2-.1-.2-.2v-3.5c0-.2.1-.2.2-.2h.5c.1 0 .2 0 .2.2v.3c.3-.3.5-.5 1-.5l.2-.1" class="st8" clip-path="url(#o)"/><path fill="#706f6f" d="M86.7 33.6c0 1.7-.8 2.6-2.4 2.6-1.7 0-2.3-.9-2.3-2.6v-2.9c0-.1.1-.2.2-.2h.6c.1 0 .2.1.2.2v2.8c0 1.2.3 1.8 1.3 1.8s1.3-.6 1.3-1.8v-2.8c0-.1.1-.2.2-.2h.6c.1 0 .2.1.2.2v2.9zm4.6 2.3c0 .1 0 .2-.2.2h-.6c-.1 0-.2-.1-.2-.2v-2.2c0-.4-.1-.8-.6-.8-.3 0-.7.2-1 .4v2.6c0 .1-.1.2-.2.2H88c-.1 0-.2-.1-.2-.2v-3.5c0-.1.1-.2.2-.2h.5c.1 0 .2 0 .2.2v.2c.4-.3.8-.5 1.3-.5.9 0 1.3.6 1.3 1.4v2.4zm1.6-4.2c-.3 0-.6-.2-.6-.5s.3-.5.6-.5.5.2.5.5-.3.5-.5.5m.5 4.2c0 .1-.1.2-.2.2h-.6c-.1 0-.2-.1-.2-.2v-3.5c0-.1.1-.2.2-.2h.6c.1 0 .2 0 .2.2v3.5zm4.3-3.5L96.3 36c0 .1-.1.2-.2.2h-.4c-.1 0-.2 0-.2-.1L94 32.4v-.1c0-.1 0-.1.1-.1h.7c.1 0 .2.1.2.2l.6 1.9c.1.2.2.5.2.7 0-.2.1-.4.2-.7l.6-1.9c0-.1.1-.2.3-.2h.6c.2 0 .2 0 .2.2m3.4 2.8c.1 0 .2 0 .2.1l.1.4v.1c0 .1 0 .1-.1.1-.4.2-.9.3-1.4.3-1.3 0-2-.8-2-2.1 0-1.2.8-2.1 2-2.1.5 0 .9.2 1.2.5.4.4.5.9.5 1.4v.1c0 .2-.1.2-.3.2h-2.4c.1.6.5 1 1.2 1 .3.2.7.1 1 0m-.5-1.5c0-.5-.3-.9-.8-.9s-.8.4-.9.9h1.7zm3.8-1.6l.1.1s0 .2-.1.6c0 .1-.1.1-.1.1h-.2c-.3 0-.6.1-.8.4v2.6c0 .1-.1.2-.2.2h-.6c-.1 0-.2-.1-.2-.2v-3.5c0-.2.1-.2.2-.2h.5c.1 0 .2 0 .2.2v.3c.2-.3.5-.5 1-.5l.2-.1m1.7 4.1c-.4 0-.9-.1-1.2-.3l-.1-.1v-.1l.1-.4.1-.1h.1c.4.1.7.2 1 .2.4 0 .6-.2.6-.4s-.2-.3-.5-.5l-.6-.2c-.5-.2-.8-.5-.8-1.1 0-.8.7-1.2 1.5-1.2.4 0 .8.1 1.2.2l.1.1v.1l-.1.4-.1.1h-.1c-.3-.1-.6-.2-.9-.2-.3 0-.5.2-.5.4s.1.3.4.4l.7.3c.4.2.8.5.8 1-.1 1-.8 1.4-1.7 1.4m2.9-4.5c-.3 0-.6-.2-.6-.5s.3-.5.6-.5.5.2.5.5-.3.5-.5.5m.4 4.2c0 .1-.1.2-.2.2h-.6c-.1 0-.2-.1-.2-.2v-3.5c0-.1.1-.2.2-.2h.6c.1 0 .2 0 .2.2v3.5zm3.3-.6l.2.1.1.4c0 .1 0 .2-.1.2-.3.1-.6.2-.9.2-.4 0-.8-.1-1-.3-.3-.3-.3-.6-.3-1.2v-1.8h-.4c-.2 0-.2 0-.2-.2v-.3c0-.1 0-.2.1-.2h.4v-.9c0-.1.1-.2.2-.2l.6-.1c.1 0 .2.1.2.2v1h.9c.1 0 .2 0 .2.1v.4c0 .1-.1.2-.2.2h-.9v1.8c0 .2 0 .4.1.5.1.1.2.2.4.2.3 0 .4 0 .6-.1m4.4-2.9l-1.6 4.2c-.4 1-.8 1.3-1.8 1.3h-.4c-.1 0-.1-.1-.1-.2l.1-.4c0-.1.1-.1.1-.1h.3c.5 0 .7-.2.9-.6l.2-.4-1.5-3.8v-.1l.1-.1h.8c.1 0 .2.1.2.1l.9 2.7.8-2.6c0-.1.1-.2.2-.2h.7l.1.2" class="st7" clip-path="url(#o)"/></g></svg>