<?xml version="1.0" encoding="iso-8859-1"?>
<!-- Generator: Adobe Illustrator 19.0.0, SVG Export Plug-In . SVG Version: 6.00 Build 0)  -->
<svg version="1.1" id="Layer_1" xmlns="http://www.w3.org/2000/svg" xmlns:xlink="http://www.w3.org/1999/xlink" x="0px" y="0px"
	 viewBox="0 0 473.931 473.931" style="enable-background:new 0 0 473.931 473.931;" xml:space="preserve">
<circle style="fill:#EFC849;" cx="236.966" cy="236.966" r="236.966"/>
<path style="fill:#F5F5F5;" d="M144.395,93.791c-8.819,0-15.981,7.158-15.981,15.985v255.753c0,8.827,7.162,15.985,15.981,15.985
	h183.829c8.827,0,15.981-7.158,15.981-15.985V167.814l-77.05-74.023H144.395z"/>
<path style="fill:#E1E1E1;" d="M344.205,167.814h-61.066c-8.827,0-15.981-7.158-15.981-15.985V93.791L344.205,167.814z"/>
<g>
	<path style="fill:#C9C9C8;" d="M321.717,189.64c0,2.754-2.238,4.988-4.992,4.988H157.079c-2.754,0-4.992-2.234-4.992-4.988l0,0
		c0-2.754,2.238-4.988,4.992-4.988h159.646C319.483,184.652,321.717,186.886,321.717,189.64L321.717,189.64z"/>
	<path style="fill:#C9C9C8;" d="M321.717,215.832c0,2.754-2.238,4.988-4.992,4.988H157.079c-2.754,0-4.992-2.234-4.992-4.988l0,0
		c0-2.754,2.238-4.988,4.992-4.988h159.646C319.483,210.844,321.717,213.078,321.717,215.832L321.717,215.832z"/>
	<path style="fill:#C9C9C8;" d="M321.717,240.779c0,2.754-2.238,4.988-4.992,4.988H157.079c-2.754,0-4.992-2.234-4.992-4.988l0,0
		c0-2.754,2.238-4.988,4.992-4.988h159.646C319.483,235.787,321.717,238.025,321.717,240.779L321.717,240.779z"/>
	<path style="fill:#C9C9C8;" d="M321.717,266.971c0,2.754-2.238,4.988-4.992,4.988H157.079c-2.754,0-4.992-2.234-4.992-4.988l0,0
		c0-2.754,2.238-4.988,4.992-4.988h159.646C319.483,261.979,321.717,264.217,321.717,266.971L321.717,266.971z"/>
	<path style="fill:#C9C9C8;" d="M240.648,288.172h-83.568c-2.754,0-4.992,2.234-4.992,4.988s2.238,4.988,4.992,4.988h83.568
		c2.754,0,4.992-2.234,4.992-4.988S243.405,288.172,240.648,288.172z"/>
</g>
<circle style="fill:#357180;" cx="328.227" cy="358.012" r="57.062"/>
<polygon style="fill:#F4E028;" points="329.802,313.346 342.872,342.663 373.705,345.237 350.951,367.519 356.934,396.84 
	329.802,382.883 302.675,396.84 308.662,367.519 285.908,345.237 316.736,342.663 "/>
<g>
</g>
<g>
</g>
<g>
</g>
<g>
</g>
<g>
</g>
<g>
</g>
<g>
</g>
<g>
</g>
<g>
</g>
<g>
</g>
<g>
</g>
<g>
</g>
<g>
</g>
<g>
</g>
<g>
</g>
</svg>
